<?xml version="1.0" encoding="utf-8"?>
<!-- Generator: Adobe Illustrator 17.0.0, SVG Export Plug-In . SVG Version: 6.00 Build 0)  -->
<!DOCTYPE svg PUBLIC "-//W3C//DTD SVG 1.1//EN" "http://www.w3.org/Graphics/SVG/1.1/DTD/svg11.dtd">
<svg version="1.1" id="logo-etec-dark" xmlns="http://www.w3.org/2000/svg" xmlns:xlink="http://www.w3.org/1999/xlink" x="0px"
	 y="0px" width="160px" height="60px" viewBox="-0.1 0.1 160 60" enable-background="new -0.1 0.1 160 60" xml:space="preserve">
<g>
	<polygon fill="#000000" points="0.265,59.302 0.265,0 39.634,0 39.634,9.369 10.83,9.369 10.83,24.518 36.644,24.518
		36.644,33.887 10.83,33.887 10.83,49.734 39.734,49.734 39.734,59.302 	"/>
	<path fill="#000000" d="M67.143,59.302c-9.668,0-16.047-4.884-16.047-14.452V25.515h-6.379v-8.173h6.379V5.88h9.867v11.362h11.661
		v8.173H60.963v18.837c0,4.884,2.193,6.578,6.977,6.578h4.983v8.372h-5.781V59.302z M114.983,46.047
		c0,8.472-7.276,13.953-18.439,13.953c-10.864,0-18.538-5.88-18.538-16.146v-9.967c0-10.565,7.774-17.243,18.538-17.243
		c10.963,0,18.439,6.279,18.439,17.342v7.375H87.176v2.093c0,5.98,3.987,8.571,9.468,8.571c5.382,0,9.07-1.894,9.07-6.478h9.269
		V46.047z M105.913,33.887c0-5.98-3.488-9.269-9.369-9.269s-9.468,3.289-9.468,9.369v0.997h18.837V33.887z M159.535,43.953
		c0,10.465-7.276,16.047-18.14,16.047c-10.864,0-18.04-5.98-18.04-16.445V33.09c0-10.465,7.276-16.445,18.04-16.445
		c10.963,0,18.14,5.581,18.14,16.047v0.698h-9.269c0-5.98-3.289-8.472-8.87-8.472c-5.482,0-8.671,2.89-8.671,8.87v8.771
		c0,6.08,3.189,8.97,8.671,8.97c5.581,0,8.87-2.392,8.87-8.372h9.269V43.953z"/>
</g>
</svg>
