<?xml version="1.0" encoding="utf-8"?>
<!-- Generator: Adobe Illustrator 17.0.0, SVG Export Plug-In . SVG Version: 6.00 Build 0)  -->
<!DOCTYPE svg PUBLIC "-//W3C//DTD SVG 1.1//EN" "http://www.w3.org/Graphics/SVG/1.1/DTD/svg11.dtd">
<svg version="1.1" id="logo-fatec-default" xmlns="http://www.w3.org/2000/svg" xmlns:xlink="http://www.w3.org/1999/xlink" x="0px"
	 y="0px" width="200px" height="60px" viewBox="-4.65 -1.45 200 60" enable-background="new -4.65 -1.45 200 60"
	 xml:space="preserve">
<path fill="#3A5461" d="M6.047,33.217v24.436H-4.65V-1.392h38.385v9.334H6.047v15.836h25.38v9.334H6.047V33.217z M195.35,42.446
	c0,10.488-7.236,15.941-18.144,15.941c-10.802,0-18.039-5.978-18.039-16.361V31.644c0-10.383,7.236-16.466,18.039-16.466
	c10.907,0,18.144,5.558,18.144,16.046v0.734h-9.334c0-5.978-3.251-8.39-8.81-8.39c-5.454,0-8.705,2.832-8.705,8.915v8.705
	c0,6.083,3.146,8.915,8.705,8.915s8.81-2.412,8.81-8.39h9.334V42.446z M66.037,57.758v-4.824l-4.405,2.412
	c-3.88,2.098-6.922,3.041-11.012,3.041c-7.446,0-12.48-4.824-12.48-11.956c0-8.705,6.817-12.795,15.522-12.795h12.48v-2.412
	c0-5.454-3.146-8.076-8.6-8.076c-5.768,0-9.019,2.412-9.019,7.341h-9.334v-0.524c0-9.439,7.446-14.788,18.353-14.788
	c11.432,0,18.039,5.768,18.039,15.732v26.953h-9.544V57.758z M66.037,40.454H54.92c-5.768,0-7.132,2.727-7.132,5.454
	c0,2.937,1.783,4.719,5.034,4.719c2.622,0,4.824-0.839,7.236-2.098l6.083-3.251v-4.824H66.037z M103.163,57.758
	c-9.649,0-15.941-4.824-15.941-14.368V23.988h-6.397v-8.18h6.397V4.481h9.858v11.327h11.641v8.18H97.08v18.773
	c0,4.929,2.202,6.607,6.922,6.607h4.929v8.39C108.932,57.758,103.163,57.758,103.163,57.758z M150.882,44.544
	c0,8.495-7.341,13.949-18.353,13.949c-10.802,0-18.458-5.873-18.458-16.151v-9.963c0-10.593,7.656-17.2,18.458-17.2
	c10.907,0,18.458,6.293,18.458,17.305v7.446H123.09v2.098c0,5.978,3.985,8.6,9.439,8.6c5.454,0,9.019-1.888,9.019-6.397h9.229v0.315
	H150.882z M141.863,32.378c0-5.978-3.461-9.229-9.334-9.229c-5.873,0-9.439,3.251-9.439,9.334v1.049h18.773V32.378z"/>
</svg>
