<?xml version="1.0" encoding="iso-8859-1"?>
<!-- Generator: Adobe Illustrator 17.0.0, SVG Export Plug-In . SVG Version: 6.00 Build 0)  -->
<!DOCTYPE svg PUBLIC "-//W3C//DTD SVG 1.1//EN" "http://www.w3.org/Graphics/SVG/1.1/DTD/svg11.dtd">
<svg version="1.1" id="logo-cps-dark" xmlns="http://www.w3.org/2000/svg" xmlns:xlink="http://www.w3.org/1999/xlink" x="0px"
	 y="0px" width="125px" height="80px" viewBox="0 0 125 80" style="enable-background:new 0 0 125 80;" xml:space="preserve">
<g>
	<path style="fill:#000000;" d="M93.824,22.288c0.094-2.863,1.335-4.008,5.442-4.008h22.627v-8.018h-21.194
		c-10.028,0-15.659,4.295-15.659,12.408c0,15.843,28.928,12.601,28.928,21c0,2.864-1.532,4.394-5.442,4.394H78.929
		c2.993-3.655,4.819-8.364,4.819-13.75c0-13.554-8.779-25.007-23.67-25.007c-13.461,0-23.102,10.116-23.102,25.2v3.746H26.778
		c-7.922,0-15.749-5.155-15.749-14.893c0-9.735,7.827-14.891,15.749-14.891h6.493V0.449h-8.018c-10.689,0-23.003,8.21-23.003,22.91
		c0,14.697,12.315,22.909,23.003,22.909h11.723v33.284h8.401V46.267H61.37v-8.016H45.377v-2.219c0-12.6,6.683-18.709,14.701-18.709
		c8.972,0,15.272,6.585,15.272,15.941c0,8.039-4.356,13.257-11.238,14.798H53.396v8.016h55.129c8.114,0,14.225-4.107,14.225-12.791
		C122.75,26.867,93.728,30.211,93.824,22.288z"/>
	<g id="Camada_86_10_">
		<g>
			<path style="fill:#000000;" d="M60.279,68.03c-0.45,0.2-1.351,0.403-2.504,0.403c-2.673,0-4.685-1.508-4.685-4.289
				c0-2.653,2.012-4.453,4.951-4.453c1.183,0,1.927,0.228,2.252,0.378l-0.295,0.893c-0.466-0.202-1.128-0.352-1.914-0.352
				c-2.221,0-3.698,1.271-3.698,3.496c0,2.076,1.333,3.407,3.641,3.407c0.747,0,1.506-0.137,2-0.352L60.279,68.03z"/>
			<path style="fill:#000000;" d="M62.304,65.465c0.029,1.496,1.098,2.114,2.336,2.114c0.888,0,1.421-0.14,1.883-0.314l0.214,0.79
				c-0.436,0.175-1.182,0.378-2.268,0.378c-2.096,0-3.349-1.232-3.349-3.068c0-1.835,1.212-3.283,3.197-3.283
				c2.224,0,2.813,1.746,2.813,2.868c0,0.226-0.028,0.403-0.043,0.516H62.304z M65.934,64.67c0.015-0.704-0.323-1.796-1.715-1.796
				c-1.253,0-1.801,1.031-1.901,1.796H65.934z"/>
			<path style="fill:#000000;" d="M68.663,63.867c0-0.629-0.012-1.143-0.056-1.647h1.099l0.069,1.007h0.028
				c0.337-0.578,1.125-1.145,2.252-1.145c0.941,0,2.407,0.503,2.407,2.589v3.636h-1.241v-3.507c0-0.98-0.406-1.8-1.575-1.8
				c-0.815,0-1.45,0.515-1.661,1.133c-0.054,0.138-0.083,0.326-0.083,0.515v3.66h-1.239V63.867z"/>
			<path style="fill:#000000;" d="M77.908,60.473v1.747h1.772v0.843h-1.772v3.284c0,0.753,0.239,1.18,0.927,1.18
				c0.323,0,0.564-0.036,0.716-0.074l0.059,0.829c-0.239,0.088-0.619,0.152-1.098,0.152c-0.578,0-1.041-0.164-1.336-0.466
				c-0.353-0.328-0.479-0.868-0.479-1.584v-3.322h-1.057v-0.843h1.057v-1.458L77.908,60.473z"/>
			<path style="fill:#000000;" d="M81.071,64.118c0-0.717-0.01-1.331-0.056-1.899h1.083l0.043,1.195h0.057
				c0.311-0.816,1.054-1.333,1.884-1.333c0.141,0,0.239,0.013,0.352,0.038v1.042c-0.126-0.024-0.25-0.036-0.419-0.036
				c-0.872,0-1.494,0.591-1.661,1.42c-0.026,0.151-0.057,0.329-0.057,0.516v3.245h-1.226V64.118z"/>
			<path style="fill:#000000;" d="M91.697,65.213c0,2.252-1.747,3.232-3.391,3.232c-1.844,0-3.265-1.207-3.265-3.131
				c0-2.038,1.49-3.232,3.376-3.232C90.372,62.082,91.697,63.353,91.697,65.213z M86.296,65.276c0,1.332,0.853,2.338,2.066,2.338
				c1.181,0,2.068-0.993,2.068-2.363c0-1.033-0.576-2.34-2.041-2.34C86.927,62.912,86.296,64.118,86.296,65.276z"/>
			<path style="fill:#000000;" d="M53.65,70.974c0.591-0.088,1.367-0.169,2.353-0.169c1.208,0,2.097,0.257,2.659,0.709
				c0.518,0.403,0.829,1.02,0.829,1.774c0,0.767-0.249,1.372-0.729,1.811c-0.647,0.616-1.702,0.932-2.897,0.932
				c-0.366,0-0.705-0.013-0.986-0.076v3.394H53.65V70.974z M54.877,75.062c0.267,0.061,0.603,0.088,1.011,0.088
				c1.48,0,2.378-0.643,2.378-1.811c0-1.12-0.888-1.661-2.236-1.661c-0.533,0-0.943,0.038-1.153,0.089V75.062z"/>
			<path style="fill:#000000;" d="M64.501,79.349l-0.099-0.766H64.36c-0.379,0.477-1.113,0.905-2.083,0.905
				c-1.379,0-2.081-0.868-2.081-1.747c0-1.472,1.462-2.277,4.093-2.265V75.35c0-0.502-0.155-1.407-1.548-1.407
				c-0.634,0-1.295,0.175-1.773,0.451l-0.284-0.73c0.566-0.326,1.38-0.541,2.235-0.541c2.085,0,2.593,1.271,2.593,2.49v2.277
				c0,0.528,0.027,1.045,0.11,1.458H64.501z M64.318,76.243c-1.352-0.024-2.885,0.189-2.885,1.372c0,0.715,0.531,1.055,1.165,1.055
				c0.889,0,1.451-0.502,1.647-1.018c0.043-0.115,0.072-0.239,0.072-0.352V76.243z"/>
			<path style="fill:#000000;" d="M73.21,77.69c0,0.629,0.011,1.181,0.054,1.659h-1.097l-0.069-0.992h-0.029
				c-0.32,0.491-1.041,1.131-2.251,1.131c-1.069,0-2.35-0.529-2.35-2.667v-3.56h1.236v3.372c0,1.158,0.395,1.936,1.523,1.936
				c0.828,0,1.406-0.515,1.63-1.006c0.069-0.164,0.111-0.365,0.111-0.566v-3.737h1.241V77.69z"/>
			<path style="fill:#000000;" d="M75.262,70.419h1.241v8.93h-1.241V70.419z"/>
			<path style="fill:#000000;" d="M82.354,79.349l-0.098-0.766h-0.043c-0.379,0.477-1.113,0.905-2.084,0.905
				c-1.377,0-2.081-0.868-2.081-1.747c0-1.472,1.463-2.277,4.093-2.265V75.35c0-0.502-0.153-1.407-1.546-1.407
				c-0.635,0-1.295,0.175-1.774,0.451l-0.28-0.73c0.563-0.326,1.379-0.541,2.237-0.541c2.083,0,2.59,1.271,2.59,2.49v2.277
				c0,0.528,0.027,1.045,0.112,1.458H82.354z M82.172,76.243c-1.35-0.024-2.886,0.189-2.886,1.372c0,0.715,0.534,1.055,1.167,1.055
				c0.887,0,1.45-0.502,1.645-1.018c0.043-0.115,0.073-0.239,0.073-0.352V76.243z"/>
			<path style="fill:#000000;" d="M88.222,78.016c0.548,0.303,1.35,0.553,2.192,0.553c1.253,0,1.985-0.591,1.985-1.445
				c0-0.793-0.506-1.246-1.785-1.686c-1.549-0.492-2.503-1.207-2.503-2.402c0-1.32,1.222-2.301,3.065-2.301
				c0.968,0,1.676,0.199,2.098,0.414l-0.339,0.893c-0.31-0.149-0.942-0.402-1.802-0.402c-1.293,0-1.786,0.692-1.786,1.27
				c0,0.792,0.577,1.183,1.889,1.634c1.603,0.554,2.416,1.246,2.416,2.491c0,1.309-1.084,2.44-3.32,2.44
				c-0.913,0-1.914-0.239-2.421-0.54L88.222,78.016z"/>
			<path style="fill:#000000;" d="M101.531,76.257c0,2.25-1.746,3.231-3.392,3.231c-1.842,0-3.264-1.208-3.264-3.132
				c0-2.037,1.492-3.232,3.376-3.232C100.208,73.124,101.531,74.395,101.531,76.257z M96.128,76.318
				c0,1.334,0.857,2.342,2.067,2.342c1.183,0,2.068-0.997,2.068-2.367c0-1.03-0.578-2.337-2.039-2.337
				C96.761,73.955,96.128,75.162,96.128,76.318z"/>
			<path style="fill:#000000;" d="M108.789,77.69c0,0.629,0.015,1.181,0.06,1.659h-1.101l-0.07-0.992h-0.026
				c-0.324,0.491-1.042,1.131-2.254,1.131c-1.067,0-2.349-0.529-2.349-2.667v-3.56h1.239v3.372c0,1.158,0.393,1.936,1.519,1.936
				c0.83,0,1.408-0.515,1.632-1.006c0.069-0.164,0.111-0.365,0.111-0.566v-3.737h1.239V77.69z"/>
			<path style="fill:#000000;" d="M110.069,78.707l3.083-3.585c0.292-0.324,0.576-0.615,0.885-0.941v-0.025h-3.687v-0.894h5.193
				l-0.015,0.694l-3.04,3.532c-0.28,0.341-0.56,0.643-0.871,0.957v0.024h3.982v0.881h-5.531V78.707z"/>
			<path style="fill:#000000;" d="M120.634,79.349l-0.095-0.766h-0.044c-0.379,0.477-1.112,0.905-2.08,0.905
				c-1.38,0-2.083-0.868-2.083-1.747c0-1.472,1.464-2.277,4.095-2.265V75.35c0-0.502-0.155-1.407-1.547-1.407
				c-0.635,0-1.295,0.175-1.775,0.451l-0.281-0.73c0.563-0.326,1.38-0.541,2.238-0.541c2.081,0,2.588,1.271,2.588,2.49v2.277
				c0,0.528,0.026,1.045,0.111,1.458H120.634z M120.453,76.243c-1.352-0.024-2.885,0.189-2.885,1.372
				c0,0.715,0.535,1.055,1.168,1.055c0.887,0,1.45-0.502,1.646-1.018c0.044-0.115,0.071-0.239,0.071-0.352V76.243z"/>
		</g>
	</g>
</g>
</svg>
