<?xml version="1.0" encoding="iso-8859-1"?>
<!-- Generator: Adobe Illustrator 17.0.0, SVG Export Plug-In . SVG Version: 6.00 Build 0)  -->
<!DOCTYPE svg PUBLIC "-//W3C//DTD SVG 1.1//EN" "http://www.w3.org/Graphics/SVG/1.1/DTD/svg11.dtd">
<svg version="1.1" id="governo-sp-light" xmlns="http://www.w3.org/2000/svg" xmlns:xlink="http://www.w3.org/1999/xlink" x="0px"
	 y="0px" width="290px" height="60px" viewBox="0 0 290 60" style="enable-background:new 0 0 290 60;" xml:space="preserve">
<g>
	<path style="fill:#FFFFFF;" d="M78.44,30.463c-3.447-1.386-5.42-3.854-8.188-8.19c-2.313-3.622-5.012-10.137-8.525-13.313
		c-1.805-1.629-3.758-2.699-6.057-3.448l-2.293,2.319c0.115,0.044,0.23,0.077,0.348,0.121c5.084,1.87,6.898,3.515,9.871,8.338
		c2.818,4.575,5.983,10.806,10.992,14.395c5.014,3.592,10.58,2.357,13.424,2.019c2.213-0.26,6.375-1.202,8.109-1.607l0.902-0.85
		l1.271-1.205c-1.619,0.415-4.193,1.029-6.729,1.458C87.788,31.135,82.255,31.996,78.44,30.463z M55.147,48.563
		c-4.75-5.537-5.236-7.406-7.93-11.221c-2.691-3.813-5.607-8.151-15.256-9.274C21.145,26.811,9.04,27.695,6.237,27.921H6.175
		l-3.688,3.457c15.51-0.841,31.045-1.458,36.879,2.805c5.834,4.262,6.563,8.693,12.002,15.647c5.441,6.955,8.807,9.648,14.752,9.648
		l3.877-3.67C63.655,57.642,59.702,53.869,55.147,48.563z M64.532,48.484c-2.691-1.98-5.16-4.689-7.668-8.355
		c-2.502-3.665-4.822-7.425-8.523-11.837c-3.701-4.408-9.088-5.681-13.387-6.279c-4.205-0.587-8.705-1.134-22.024-0.458l-3.26,3.068
		L9.45,24.83c9.611-0.544,16.951-0.794,24.457,0.175c7.813,1.009,10.768,2.876,14.992,9.122c4.229,6.246,6.957,10.546,10.51,14.324
		c3.545,3.767,8.395,5.783,14.094,4.044l3.377-3.194c-0.727,0.229-1.465,0.409-2.178,0.495C71.3,50.206,67.224,50.469,64.532,48.484
		z M85.862,27.452c-8.19,0.058-11.047-6.843-12.842-9.984c-1.793-3.141-3.424-6.899-6.506-11.497
		c-0.104-0.154-0.209-0.3-0.316-0.445c-0.033-0.047-0.07-0.09-0.105-0.137c-0.074-0.094-0.147-0.191-0.221-0.281
		c-0.045-0.051-0.086-0.099-0.129-0.152c-0.07-0.08-0.141-0.16-0.211-0.238c-0.049-0.05-0.094-0.099-0.143-0.148
		c-0.07-0.074-0.141-0.145-0.211-0.217c-0.049-0.048-0.1-0.093-0.148-0.14c-0.072-0.067-0.147-0.137-0.223-0.203
		c-0.047-0.042-0.096-0.084-0.148-0.127c-0.076-0.066-0.158-0.13-0.238-0.194c-0.047-0.038-0.094-0.075-0.141-0.112
		c-0.092-0.067-0.184-0.132-0.275-0.2c-0.041-0.026-0.08-0.056-0.119-0.08c-0.129-0.088-0.258-0.173-0.389-0.251
		c-0.004-0.002-0.01-0.009-0.014-0.011c-0.143-0.082-0.287-0.164-0.43-0.241c-0.031-0.017-0.061-0.032-0.088-0.045
		c-0.115-0.061-0.232-0.12-0.348-0.176c-0.047-0.021-0.092-0.041-0.137-0.063c-0.105-0.047-0.209-0.092-0.313-0.138
		c-0.051-0.02-0.103-0.04-0.156-0.065c-0.102-0.04-0.203-0.08-0.307-0.118c-0.057-0.02-0.109-0.04-0.164-0.059
		c-0.105-0.038-0.211-0.073-0.318-0.107c-0.053-0.02-0.107-0.037-0.162-0.053c-0.109-0.035-0.223-0.067-0.336-0.101
		c-0.051-0.014-0.104-0.028-0.154-0.043c-0.127-0.034-0.25-0.066-0.375-0.098c-0.045-0.011-0.088-0.021-0.129-0.031
		c-0.16-0.039-0.324-0.074-0.488-0.109c-0.008-0.003-0.018-0.003-0.025-0.003l-2.131,2.155c3.148,0.683,5.564,1.425,8.268,5.989
		c2.992,5.047,5.758,10.114,6.992,12.135c1.236,2.021,3.758,5.795,7.611,6.767c3.848,0.972,7.045,0.708,10.805,0.206
		c2.516-0.34,6.371-0.993,9.068-1.563l2.299-2.176C102.466,25.097,94.052,27.395,85.862,27.452z M67.382,34.828
		c-4.234-4.908-7.85-10.621-10.967-14.164c-3.139-3.569-7.654-6.299-13.797-7.476c-5.893-1.131-16.063-1.056-20.102-0.65
		l-0.869,0.817l-1.313,1.235c5.18-0.266,11.922-0.135,16.713,0.317c5.047,0.477,10.012,1.188,14.471,5.198
		s7.225,8.215,10.844,13.266c3.617,5.046,7.517,8.27,12.088,8.777c3.387,0.375,7.865-0.172,10.744-0.71l1.15-1.091l1.951-1.845
		c-3.049,0.815-6.602,1.293-9.529,1.321C75.403,39.849,71.618,39.737,67.382,34.828z M65.056,41.027
		C60.708,36.314,54.8,26.453,51.331,23.283c-4.43-4.047-8.459-5.646-17.209-6.459c-6.066-0.563-12.416-0.494-15.736-0.397
		l-0.943,0.885l-1.938,1.821c9.93-0.441,14.383-0.578,22.066,0.599c8.303,1.271,11.817,4.972,15.182,9.535
		c3.365,4.561,6.281,9.383,9.422,12.861c3.142,3.479,4.822,5.457,12.162,5.404c3.754-0.026,5.193-0.74,5.197-0.742l2.852-2.697
		c-0.063-0.014-2.271,0.552-4.484,0.75C75.903,45.017,69.403,45.738,65.056,41.027z M77.339,34.632
		c-4.561-0.823-8.502-5.337-11.443-10.209c-2.949-4.89-7.289-11.815-14.564-14.521l-2.225,2.273
		c2.467,0.832,4.576,1.941,6.076,3.386c2.971,2.859,4.973,5.252,8.678,10.526c3.699,5.271,6.9,10.527,13.234,11.065
		c5.348,0.456,10.889-0.472,14.041-1.339l2.355-2.225l0.195-0.189c-0.758,0.191-1.824,0.427-3.281,0.688
		C86.257,34.837,81.901,35.456,77.339,34.632z"/>
	<path style="fill:#FFFFFF;" d="M51.749,0.75c-6.752-0.362-11.822-0.289-16.674,0.167l-8.199,7.544l-2.203,2.071
		c5.926-0.465,12.084-0.374,16.768,0.047c2.559,0.229,5.291,0.817,7.725,1.618l2.215-2.313l8.244-8.285
		C57.335,1.124,54.819,0.917,51.749,0.75z M34.587,1.93l1.201-0.111l0.979-0.508l0.023,0.513L37.874,1.9l-1.221,0.433l-0.34,0.565
		l-0.77-0.262l-1.227,0.268l0.701-0.561L34.587,1.93z M30.727,8.743l-0.4,0.694l-0.881-0.371l-1.453,0.257l0.854-0.643l-0.51-0.518
		l1.396-0.07l1.156-0.584l0.016,0.643L32.159,8.3L30.727,8.743z M49.044,9.732l-0.533,0.662l-0.998-0.497l-1.695,0.098l1.014-0.574
		l-0.535-0.605l1.605,0.135l1.406-0.476l-0.025,0.665l1.457,0.327L49.044,9.732z M50.298,5.57c-2.303,2.33-8.012,3.951-12.502,3.717
		c-4.195-0.223-5.887-2.022-3.967-4.092c1.947-2.1,7.076-3.842,11.67-3.883C50.403,1.296,52.677,3.21,50.298,5.57z M55.038,3.537
		l-0.977-0.368L52.44,3.341l0.932-0.564l-0.535-0.497l1.541,0.006l1.316-0.519l0.01,0.608l1.418,0.176l-1.615,0.348L55.038,3.537z"
		/>
	<path style="fill:#FFFFFF;" d="M37.999,8.163l0.426,0.321c0,0-0.006,0.262,0.082,0.307c0.107,0.043,0.105,0.135,0.432-0.024
		c0.326-0.142,0.504-0.302,0.611-0.368c0.117-0.082,0.027-0.03,0.365-0.138c0.326-0.107,0.508-0.136,0.746-0.309
		c0.248-0.188,0.15,0,0.367-0.269c0.26-0.287,0.369-0.452,0.654-0.51c0.295-0.089,0.865-0.192,1.18-0.22
		c0.301-0.016,1.021,0.149,1.242,0.004c0.188-0.166,0.516-0.545,0.793-0.624c0.283-0.11,0.799-0.362,1.057-0.581
		c0.246-0.192,0.594-0.456,0.752-0.538c0.166-0.073,0.689-0.32,0.689-0.32s1.055-0.525,1.369-0.552
		c0.332-0.005,0.475-0.235,0.523-0.337c0.02-0.095-0.223-0.204-0.369-0.236c-0.148-0.014-0.332-0.047-0.406-0.152
		C48.407,3.496,47.89,3.36,47.89,3.36s-0.365,0.235-0.693-0.012c-0.35-0.279-0.289-0.455-0.502-0.472
		c-0.193-0.024-0.137-0.004-0.41-0.007c-0.285-0.003-0.422,0.002-0.617,0.061c-0.186,0.051,0.023,0.39-0.512,0.178
		c-0.553-0.23-0.533-0.49-0.637-0.606c-0.127-0.1-0.137-0.015-0.391-0.072c-0.223-0.054-0.303-0.088-0.432-0.007
		c-0.115,0.061-0.602,0.394-0.682,0.365c-0.104-0.054-0.588-0.326-0.391-0.435c0.236-0.123,0.428-0.435,0.318-0.406
		c-0.078,0.009-0.373,0.122-0.541,0.135c-0.156,0.029-0.451,0.026-0.508,0.046c-0.061,0.03-0.521,0.116-0.561,0.199
		c-0.063,0.061,0.264,0.066-0.045,0.26c-0.297,0.195-0.563,0.368-0.824,0.184c-0.252-0.173-0.277-0.235-0.455-0.206
		c-0.168,0.048-0.494,0.22-0.662,0.321c-0.178,0.112-0.297,0.172-0.297,0.172s0.002-0.051-0.131,0.196
		c-0.121,0.242-0.221,0.376-0.418,0.456c-0.185,0.059-0.264,0.108-0.676,0.217c-0.432,0.077-0.574,0.232-0.791,0.329
		c-0.207,0.094-0.314,0.196-0.258,0.352c0.094,0.159,0.063,0.276,0.211,0.206c0.146-0.084,0.16-0.197,0.266-0.151
		c0.125,0.043,0.152,0.357,0.309,0.3c0.168-0.102,0.107-0.034,0.477-0.257c0.371-0.222,0.217-0.182,0.498-0.106
		c0.281,0.047,0.242,0.164,0.346,0.321c0.107,0.15,0.248,0.234,0.406,0.271c0.129,0.01-0.002,0.154,0.289,0.412
		c0.297,0.267,0.297,0.267,0.297,0.267s-0.109,0.2-0.221,0.311c-0.09,0.136-0.434,0.317-0.33,0.457
		c0.076,0.136,0.281,0.234,0.387,0.383c0.113,0.148,0.109,0.452,0.109,0.452s-0.574,0.338-0.682,0.345
		C39.05,7.848,38.106,8.111,37.999,8.163L37.999,8.163z"/>
	<path style="fill:#FFFFFF;" d="M45.495,2.008c-0.158,0.108-0.809,0.293-0.721,0.442c0.09,0.171,0.275,0.439,0.443,0.401
		c0.166-0.052,0.311,0.076,0.404-0.192C45.714,2.377,45.495,2.008,45.495,2.008L45.495,2.008z"/>
	<g>
		<g>
			<g>
				<path style="fill:#FFFFFF;" d="M123.636,45.539h1.031h2.52l-2.873-7.81l-3.154,7.81H123.636z M123.636,29.315h1.031h3.895
					l10.34,26.579h-7.865l-1.836-4.959h-4.533h-1.031h-4.771l-2.039,4.959h-7.93l11.611-26.579H123.636z"/>
				<path style="fill:#FFFFFF;" d="M150.536,28.927c0.172,0,0.34,0.004,0.518,0.007L150.536,28.927z M150.02,28.927
					c0.172,0.004,0.344,0,0.516,0H150.02z M150.536,49.966c3.906,0,6.789-2.981,6.789-7.302c0-4.379-2.883-7.359-6.768-7.359
					c-3.947,0.02-6.789,2.98-6.789,7.359C143.768,46.989,146.61,49.966,150.536,49.966 M151.054,56.38
					c-0.166,0.004-0.332,0.004-0.496,0.004h0.496V56.38z M160.825,32.665c2.742,2.626,4.164,6.011,4.164,9.999
					c0,3.911-1.418,7.316-4.164,9.885c-2.57,2.451-5.84,3.73-9.771,3.832l-0.496,0.004c-4.158,0-7.553-1.283-10.23-3.835
					c-2.742-2.569-4.162-6.014-4.162-9.885c0-3.988,1.424-7.373,4.162-9.999c2.568-2.411,5.797-3.633,9.693-3.731l0.516-0.007h0.518
					C154.972,29.032,158.257,30.254,160.825,32.665"/>
				<path style="fill:#FFFFFF;" d="M181.501,29.313l0.227,0.002h0.113L181.501,29.313z M181.501,39.906
					c1.756-0.054,3.285-0.206,3.285-2.38c0-1.955-1.367-2.322-2.922-2.404h-2.623v4.784H181.501z M192.407,37.465
					c0,6.323-4.688,8.082-9.877,8.42l-0.514,0.033h-0.104l-0.412,0.014c-0.102,0.004-0.203,0.004-0.301,0.004h-1.959v9.958h-7.414
					V29.315l9.674-0.002l0.34,0.002h0.689C187.696,29.545,192.407,31.098,192.407,37.465"/>
				<path style="fill:#FFFFFF;" d="M201.227,45.539h1.029h2.521l-2.873-7.81l-3.154,7.81H201.227z M201.227,29.315h1.029h3.9
					l10.336,26.579h-7.867l-1.836-4.959h-4.533h-1.029h-4.772l-2.041,4.959h-7.928L198.1,29.315H201.227z"/>
				<path style="fill:#FFFFFF;" d="M272.589,28.927c0.164,0.004,0.328,0,0.492,0H272.589z M273.081,49.966
					c3.93,0,6.793-2.981,6.793-7.302c0-4.358-2.865-7.341-6.777-7.359c-3.938,0-6.781,2.98-6.781,7.359
					C266.315,46.989,269.159,49.966,273.081,49.966 M272.589,56.384h0.492c-0.164,0-0.328,0-0.492-0.004V56.384z M273.62,56.38
					c-0.17,0.004-0.346,0.004-0.516,0.004h0.516V56.38z M283.337,32.665c2.713,2.626,4.176,6.006,4.176,9.999
					c0,3.917-1.461,7.316-4.178,9.885c-2.547,2.447-5.809,3.728-9.715,3.832l-0.516,0.004h-0.516
					c-3.93-0.105-7.145-1.389-9.734-3.835c-2.738-2.569-4.182-6.013-4.182-9.885c0-3.991,1.447-7.373,4.182-10.003
					c2.59-2.408,5.809-3.632,9.734-3.728l0.492-0.005C277.229,28.927,280.675,30.148,283.337,32.665"/>
				<path style="fill:#FFFFFF;" d="M99.409,50.375c2.48,0,3.301-0.736,3.301-1.749c0-1.502-1.965-1.931-3.063-2.309
					c-6.439-2.262-9.938-4.494-9.938-9.529c0-4.663,4.154-7.861,10.168-7.861c3.287,0,6.256,0.866,9.207,2.271v6.388
					c-2.65-1.343-5.805-2.853-8.883-2.853c-2.48,0-3.197,0.729-3.197,1.546c0,0.666,0.709,1.482,3.096,2.336
					c2.17,0.857,4.416,1.593,6.432,2.793c2.434,1.512,3.615,3.857,3.615,6.828c0,5.054-4.016,8.147-10.615,8.147
					c-3.473,0-6.414-0.946-9.373-2.735v-6.877C92.952,48.461,95.989,50.375,99.409,50.375"/>
				<path style="fill:#FFFFFF;" d="M226.979,56.384c-7.828,0-12.578-4.406-12.578-11.921V29.315h7.438v14.883
					c0,3.868,1.844,5.813,5.18,5.813c3.315,0,5.117-1.938,5.117-5.813V29.315h7.459v15.148
					C239.595,51.979,234.804,56.384,226.979,56.384"/>
				<polygon style="fill:#FFFFFF;" points="248.776,29.315 248.776,49.966 259.774,49.966 259.774,55.895 241.337,55.895 
					241.337,29.315 				"/>
				<path style="fill:#FFFFFF;" d="M124.311,27.687l-1.029-0.437c-0.475-0.231-0.988-0.362-1.318-0.404
					c-0.973-0.12-1.557,0.337-2.004,1.243l-2.152-0.266c0.975-3.052,2.51-4.422,4.711-4.152c0.43,0.052,1.027,0.247,1.691,0.52
					l0.504,0.206l1.303,0.543c0.371,0.121,0.691,0.23,1.094,0.28c0.854,0.103,1.637-0.401,2-1.411l2.154,0.264
					c-1.018,2.998-2.414,4.604-4.83,4.308c-0.447-0.056-0.955-0.236-1.439-0.395L124.311,27.687z"/>
				<path style="fill:#FFFFFF;" d="M96.817,22.66c-1.918,0-3.52-0.599-4.662-1.686c-1.197-1.144-1.865-2.728-1.865-4.522
					c0-3.675,2.639-6.224,6.826-6.224c1.529,0,2.975,0.368,4.469,1.089v2.638c-1.604-0.808-3.045-1.214-4.311-1.214
					c-2.43,0-3.889,1.408-3.889,3.711c0,2.253,1.406,3.693,3.643,3.693c0.598,0,1.176-0.122,1.758-0.37v-1.512h-1.652v-2.25h4.715
					v5.028C100.37,22.149,98.751,22.66,96.817,22.66"/>
				<path style="fill:#FFFFFF;" d="M105.224,11.95c1.213-1.142,2.744-1.705,4.643-1.705c1.9,0,3.451,0.563,4.662,1.705
					c1.232,1.181,1.885,2.711,1.885,4.502c0,1.794-0.652,3.323-1.885,4.488c-1.211,1.141-2.762,1.722-4.662,1.722
					c-1.898,0-3.43-0.581-4.643-1.722c-1.23-1.164-1.883-2.711-1.883-4.488C103.341,14.661,103.993,13.13,105.224,11.95
					 M109.866,20.127c1.988,0,3.432-1.509,3.432-3.674c0-2.163-1.443-3.692-3.432-3.692c-1.988,0-3.43,1.53-3.43,3.692
					C106.436,18.617,107.878,20.127,109.866,20.127"/>
				<polygon style="fill:#FFFFFF;" points="116.329,10.439 119.548,10.439 122.522,17.419 125.69,10.439 128.942,10.439 
					123.083,22.554 121.782,22.554 				"/>
				<polygon style="fill:#FFFFFF;" points="129.768,10.439 137.806,10.439 137.806,12.654 132.776,12.654 132.776,15.098 
					137.577,15.098 137.577,17.331 132.776,17.331 132.776,20.197 137.948,20.197 137.948,22.449 129.768,22.449 				"/>
				<path style="fill:#FFFFFF;" d="M139.934,10.439h4.432c3.219,0,4.785,1.072,4.785,3.48c0,1.319-0.65,2.252-2.094,2.901
					c0.6,0.23,1.074,0.74,1.426,1.513l1.916,4.115h-3.395l-1.529-3.463c-0.475-1.076-1.002-1.441-2.18-1.441
					c-0.125,0-0.232,0.017-0.355,0.017v4.888h-3.006V10.439z M146.038,13.956c0-0.878-0.563-1.39-1.652-1.39h-1.445v2.797h1.445
					C145.511,15.363,146.038,14.906,146.038,13.956"/>
				<polygon style="fill:#FFFFFF;" points="154.325,22.449 151.35,22.449 151.35,10.439 153.987,10.439 160.427,17.594 
					160.427,10.439 163.397,10.439 163.397,22.449 161.042,22.449 154.325,14.906 				"/>
				<path style="fill:#FFFFFF;" d="M167.038,11.95c1.213-1.142,2.744-1.705,4.643-1.705c1.904,0,3.449,0.563,4.664,1.705
					c1.232,1.181,1.883,2.711,1.883,4.502c0,1.794-0.65,3.323-1.883,4.488c-1.215,1.141-2.76,1.722-4.664,1.722
					c-1.898,0-3.43-0.581-4.643-1.722c-1.23-1.164-1.881-2.711-1.881-4.488C165.157,14.661,165.808,13.13,167.038,11.95
					 M171.681,20.127c1.99,0,3.434-1.509,3.434-3.674c0-2.163-1.443-3.692-3.434-3.692c-1.986,0-3.43,1.53-3.43,3.692
					C168.251,18.617,169.694,20.127,171.681,20.127"/>
				<path style="fill:#FFFFFF;" d="M184.784,10.439h4.504c1.918,0,3.467,0.123,4.963,1.247c1.527,1.162,2.338,2.795,2.338,4.75
					c0,2.144-0.984,3.937-2.818,5.098c-1.352,0.861-2.756,0.914-4.483,0.914h-4.504V10.439z M187.794,20.023h2.234
					c2.057,0,3.467-1.495,3.467-3.587c0-2.092-1.41-3.571-3.467-3.571h-2.234V20.023z"/>
				<path style="fill:#FFFFFF;" d="M199.647,11.95c1.213-1.142,2.742-1.705,4.643-1.705c1.902,0,3.449,0.563,4.664,1.705
					c1.23,1.181,1.883,2.711,1.883,4.502c0,1.794-0.652,3.323-1.883,4.488c-1.215,1.141-2.762,1.722-4.664,1.722
					c-1.9,0-3.43-0.581-4.643-1.722c-1.232-1.164-1.881-2.711-1.881-4.488C197.767,14.661,198.415,13.13,199.647,11.95
					 M204.29,20.127c1.99,0,3.432-1.509,3.432-3.674c0-2.163-1.441-3.692-3.432-3.692c-1.986,0-3.43,1.53-3.43,3.692
					C200.86,18.617,202.304,20.127,204.29,20.127"/>
				<polygon style="fill:#FFFFFF;" points="217.393,10.439 225.434,10.439 225.434,12.654 220.401,12.654 220.401,15.098 
					225.204,15.098 225.204,17.331 220.401,17.331 220.401,20.197 225.575,20.197 225.575,22.449 217.393,22.449 				"/>
				<path style="fill:#FFFFFF;" d="M227.294,18.828c1.514,0.931,2.746,1.512,4.102,1.512c1.176,0,1.793-0.369,1.793-1.074
					c0-0.721-0.547-0.948-1.6-1.318c-3.027-1.055-4.504-2.058-4.504-4.239c0-2.003,1.775-3.463,4.537-3.463
					c1.32,0,2.711,0.317,4.08,0.986v2.46c-1.529-0.773-2.813-1.195-3.922-1.195c-1.16,0-1.758,0.351-1.758,0.965
					c0,0.494,0.527,0.934,1.617,1.338c1.076,0.404,2.096,0.739,2.992,1.283c1.055,0.651,1.582,1.671,1.582,3.008
					c0,2.18-1.723,3.57-4.75,3.57c-1.496,0-2.883-0.386-4.17-1.159V18.828z"/>
				<polygon style="fill:#FFFFFF;" points="240.909,12.672 236.933,12.672 236.933,10.439 248.052,10.439 248.052,12.672 
					244.077,12.672 244.077,22.449 240.909,22.449 				"/>
				<path style="fill:#FFFFFF;" d="M252.085,10.439h3.465l4.682,12.009h-3.184l-0.863-2.337h-5.172l-0.969,2.337h-3.201
					L252.085,10.439z M255.427,18.054l-1.688-4.575l-1.863,4.575H255.427z"/>
				<path style="fill:#FFFFFF;" d="M261.056,10.439h4.504c1.916,0,3.463,0.123,4.959,1.247c1.529,1.162,2.342,2.795,2.342,4.75
					c0,2.144-0.984,3.937-2.816,5.098c-1.354,0.861-2.76,0.914-4.484,0.914h-4.504V10.439z M264.061,20.023h2.236
					c2.059,0,3.465-1.495,3.465-3.587c0-2.092-1.406-3.571-3.465-3.571h-2.236V20.023z"/>
				<path style="fill:#FFFFFF;" d="M275.915,11.95c1.215-1.142,2.748-1.705,4.645-1.705c1.9,0,3.451,0.563,4.664,1.705
					c1.232,1.181,1.881,2.711,1.881,4.502c0,1.794-0.648,3.323-1.881,4.488c-1.213,1.141-2.764,1.722-4.664,1.722
					c-1.897,0-3.43-0.581-4.645-1.722c-1.23-1.164-1.881-2.711-1.881-4.488C274.034,14.661,274.684,13.13,275.915,11.95
					 M280.559,20.127c1.99,0,3.432-1.509,3.432-3.674c0-2.163-1.441-3.692-3.432-3.692c-1.988,0-3.43,1.53-3.43,3.692
					C277.13,18.617,278.571,20.127,280.559,20.127"/>
			</g>
		</g>
	</g>
</g>
</svg>
