<?xml version="1.0" encoding="iso-8859-1"?>
<!-- Generator: Adobe Illustrator 17.0.0, SVG Export Plug-In . SVG Version: 6.00 Build 0)  -->
<!DOCTYPE svg PUBLIC "-//W3C//DTD SVG 1.1//EN" "http://www.w3.org/Graphics/SVG/1.1/DTD/svg11.dtd">
<svg version="1.1" id="governo-sp" xmlns="http://www.w3.org/2000/svg" xmlns:xlink="http://www.w3.org/1999/xlink" x="0px" y="0px"
	 width="290px" height="60px" viewBox="0 0 290 60" style="enable-background:new 0 0 290 60;" xml:space="preserve">
<g>
	<g>
		<linearGradient id="SVGID_1_" gradientUnits="userSpaceOnUse" x1="39.4406" y1="12.8683" x2="73.5381" y2="48.1624">
			<stop  offset="0.0275" style="stop-color:#FFFFFF"/>
			<stop  offset="0.1276" style="stop-color:#EDEDED"/>
			<stop  offset="0.3266" style="stop-color:#C0C0C0"/>
			<stop  offset="0.478" style="stop-color:#999999"/>
			<stop  offset="0.9231" style="stop-color:#FFFFFF"/>
		</linearGradient>
		<path style="fill:url(#SVGID_1_);" d="M62.399,41.795c-3.142-3.479-6.044-8.283-9.41-12.844c-3.364-4.562-6.892-8.277-15.193-9.55
			c-7.66-1.171-12.123-1.043-21.993-0.603c-0.029,0.002-0.065,0.028-0.093,0.03l-2.575,2.422c0.021,0,0.035,0.03,0.053,0.03
			c13.272-0.671,17.738-0.128,21.936,0.455c4.303,0.598,9.655,1.851,13.358,6.259c3.702,4.413,6.049,8.18,8.553,11.844
			c2.505,3.666,4.978,6.368,7.67,8.348c2.692,1.982,6.776,1.759,10.178,1.347c0.691-0.084,1.391-0.26,2.098-0.482
			c0.023-0.007,0.08-0.047,0.104-0.054l2.654-2.512c0,0-0.058-0.018-0.101,0c-0.313,0.132-1.792,0.675-5.104,0.701
			C67.195,47.238,65.539,45.274,62.399,41.795z M85.318,41.115c-2.877,0.535-7.301,1.074-10.664,0.702
			c-4.571-0.506-8.435-3.71-12.054-8.757c-3.616-5.05-6.372-9.25-10.83-13.259s-9.465-4.752-14.514-5.231
			c-4.77-0.451-11.451-0.577-16.622-0.314c-0.02,0-0.072,0.029-0.094,0.031l-1.95,1.836c0.015,0,0.037,0.026,0.052,0.026
			c3.337-0.097,9.646-0.161,15.685,0.4c8.75,0.813,12.76,2.408,17.191,6.456c3.468,3.171,9.388,13.035,13.735,17.747
			c4.347,4.712,10.856,4.005,12.853,3.828c2.034-0.18,4.312-0.703,4.379-0.746c0.034-0.007,0.102-0.043,0.105-0.043l2.808-2.655
			C85.378,41.137,85.338,41.112,85.318,41.115z M73.639,52.171c-5.676,1.712-10.454-0.3-13.99-4.058
			c-3.549-3.778-6.273-8.058-10.501-14.304c-4.226-6.246-7.209-8.135-15.024-9.142c-7.486-0.969-14.8-0.716-24.377-0.175
			c-0.023,0-0.07,0.034-0.092,0.034L6.38,27.617l0.063,0.031c2.806-0.226,14.844-1.121,25.661,0.138
			c9.648,1.123,12.601,5.47,15.292,9.282c2.691,3.815,3.196,5.692,7.943,11.226c4.544,5.294,8.479,9.057,14.787,7.262
			c0.02-0.004,0.06-0.044,0.078-0.051l3.505-3.315C73.691,52.198,73.656,52.167,73.639,52.171z M100.295,26.953
			c-2.692,0.567-6.512,1.202-9.002,1.536c-3.761,0.503-6.935,0.773-10.785-0.198c-3.852-0.971-6.345-4.733-7.579-6.753
			c-1.234-2.018-4.013-7.08-7.003-12.126c-2.685-4.53-5.071-5.305-8.184-5.981c-0.023-0.005-0.091,0.012-0.116,0.006l-1.752,1.774
			c0.021,0.006,0.045,0.057,0.066,0.064c2.273,0.749,4.156,1.786,5.946,3.402c3.516,3.173,6.214,9.682,8.526,13.305
			c2.766,4.339,4.792,6.84,8.237,8.224c3.812,1.535,9.35,0.666,13.125,0.03c2.508-0.422,5.03-1.034,6.654-1.452
			c0.019-0.002,0.052-0.038,0.07-0.043l1.872-1.77C100.35,26.973,100.319,26.949,100.295,26.953z M74.822,30.353
			c-5.01-3.589-8.16-9.804-10.979-14.378c-2.972-4.824-4.785-6.491-9.871-8.359c-0.096-0.037-0.194-0.072-0.302-0.099
			c-0.021-0.003-0.069,0.018-0.088,0.011L51.537,9.6c0.016,0.004,0.043,0.052,0.06,0.057c7.247,2.717,11.51,9.6,14.455,14.477
			c2.942,4.873,6.931,9.426,11.492,10.25c4.562,0.823,8.904,0.195,13.052-0.554c1.407-0.253,2.433-0.493,3.184-0.679
			c0.026-0.007,0.088-0.047,0.113-0.053l2.436-2.303c-0.021,0.007-0.049-0.021-0.072-0.013c-1.772,0.412-5.844,1.316-8.028,1.576
			C85.385,32.695,79.833,33.942,74.822,30.353z M91.243,35.493c-3.163,0.862-8.615,1.764-13.924,1.309
			c-6.336-0.539-9.529-5.762-13.23-11.033c-3.701-5.274-5.7-7.671-8.673-10.532c-1.499-1.443-3.583-2.545-6.05-3.381
			c-2.422-0.816-5.218-1.38-7.802-1.617c-4.817-0.443-11.287-0.543-16.596-0.041c-0.015,0-0.022,0.007-0.093,0.037l-2.152,1.999
			c0.028,0.044,0.057,0.034,0.087,0.03c4.093-0.397,14.149-0.476,20.002,0.645c6.143,1.178,10.665,3.924,13.804,7.495
			c3.118,3.544,6.73,9.262,10.965,14.172c4.236,4.905,8.037,5.013,11.4,4.983c2.903-0.024,6.377-0.5,9.409-1.307
			c0.023-0.003,0.089-0.048,0.112-0.054l2.84-2.687C91.318,35.518,91.264,35.487,91.243,35.493z"/>
		<path d="M78.646,30.16c-3.447-1.386-5.42-3.854-8.188-8.19c-2.312-3.622-5.011-10.137-8.524-13.313
			c-1.806-1.629-3.759-2.699-6.058-3.448l-2.293,2.319c0.115,0.043,0.232,0.077,0.348,0.121c5.084,1.87,6.899,3.515,9.871,8.338
			c2.819,4.575,5.982,10.806,10.993,14.395c5.013,3.592,10.58,2.357,13.423,2.019c2.213-0.26,6.376-1.202,8.11-1.607l0.901-0.85
			l1.271-1.205c-1.62,0.415-4.192,1.029-6.729,1.458C87.993,30.831,82.459,31.692,78.646,30.16z M55.352,48.259
			c-4.75-5.537-5.237-7.406-7.929-11.221c-2.692-3.813-5.608-8.151-15.256-9.274c-10.816-1.258-22.922-0.373-25.725-0.147H6.38
			l-3.689,3.457c15.51-0.841,31.046-1.458,36.88,2.805c5.833,4.262,6.563,8.693,12.002,15.647c5.441,6.955,8.806,9.648,14.751,9.648
			l3.877-3.67C63.861,57.338,59.907,53.565,55.352,48.259z M64.736,48.181c-2.69-1.98-5.16-4.689-7.667-8.355
			c-2.503-3.665-4.822-7.425-8.524-11.837c-3.702-4.408-9.088-5.681-13.388-6.279c-4.205-0.587-8.704-1.134-22.023-0.458
			l-3.26,3.068l-0.221,0.207c9.612-0.544,16.953-0.794,24.458,0.175c7.813,1.009,10.768,2.876,14.993,9.122
			c4.228,6.246,6.958,10.546,10.509,14.324c3.545,3.767,8.395,5.783,14.095,4.044l3.377-3.194c-0.727,0.229-1.466,0.409-2.179,0.495
			C71.504,49.902,67.428,50.165,64.736,48.181z M86.067,27.148c-8.188,0.058-11.047-6.843-12.841-9.984
			c-1.794-3.141-3.423-6.899-6.507-11.497c-0.104-0.154-0.208-0.3-0.316-0.445c-0.032-0.047-0.069-0.09-0.104-0.137
			c-0.074-0.094-0.147-0.191-0.221-0.281c-0.044-0.051-0.086-0.099-0.128-0.152c-0.071-0.08-0.142-0.16-0.212-0.238
			c-0.047-0.05-0.093-0.099-0.143-0.148c-0.069-0.074-0.14-0.145-0.211-0.217c-0.049-0.048-0.1-0.093-0.148-0.14
			c-0.073-0.067-0.146-0.137-0.222-0.203c-0.048-0.042-0.096-0.084-0.148-0.126c-0.077-0.066-0.158-0.13-0.24-0.194
			c-0.046-0.038-0.093-0.075-0.14-0.112c-0.092-0.067-0.184-0.132-0.275-0.2c-0.04-0.026-0.08-0.056-0.12-0.08
			c-0.128-0.088-0.256-0.173-0.389-0.251c-0.004-0.002-0.01-0.009-0.014-0.011c-0.143-0.082-0.286-0.164-0.43-0.241
			c-0.03-0.017-0.06-0.032-0.087-0.045c-0.116-0.061-0.232-0.12-0.348-0.176c-0.046-0.022-0.091-0.041-0.137-0.063
			c-0.104-0.047-0.207-0.092-0.313-0.138c-0.05-0.02-0.103-0.04-0.156-0.065c-0.102-0.041-0.203-0.08-0.307-0.118
			c-0.055-0.02-0.109-0.04-0.163-0.059c-0.106-0.038-0.211-0.073-0.319-0.107c-0.053-0.019-0.108-0.037-0.162-0.053
			c-0.11-0.035-0.223-0.067-0.337-0.101c-0.05-0.014-0.103-0.028-0.154-0.043c-0.126-0.034-0.25-0.066-0.375-0.098
			c-0.045-0.011-0.087-0.021-0.129-0.031c-0.161-0.039-0.324-0.074-0.488-0.109c-0.008-0.003-0.017-0.003-0.025-0.003l-2.132,2.155
			c3.148,0.683,5.564,1.425,8.269,5.989c2.991,5.047,5.758,10.114,6.992,12.135c1.236,2.021,3.758,5.795,7.611,6.767
			c3.848,0.972,7.045,0.708,10.804,0.206c2.516-0.34,6.373-0.993,9.07-1.563l2.297-2.176C102.67,24.794,94.257,27.091,86.067,27.148
			z M67.587,34.524c-4.235-4.908-7.851-10.621-10.967-14.164c-3.14-3.569-7.654-6.299-13.797-7.476
			c-5.893-1.131-16.064-1.056-20.102-0.65l-0.87,0.817l-1.313,1.235c5.18-0.266,11.921-0.135,16.713,0.317
			c5.047,0.477,10.012,1.189,14.471,5.198c4.459,4.009,7.225,8.215,10.844,13.266c3.617,5.046,7.516,8.271,12.087,8.777
			c3.387,0.375,7.866-0.172,10.744-0.71l1.152-1.091l1.95-1.845c-3.048,0.815-6.6,1.293-9.528,1.321
			C75.609,39.545,71.822,39.433,67.587,34.524z M65.26,40.723c-4.348-4.713-10.255-14.574-13.724-17.744
			c-4.431-4.047-8.46-5.646-17.21-6.459c-6.066-0.563-12.415-0.494-15.737-0.397l-0.943,0.885l-1.937,1.821
			c9.93-0.441,14.383-0.578,22.066,0.599c8.302,1.271,11.816,4.972,15.182,9.535c3.366,4.561,6.281,9.383,9.421,12.861
			c3.143,3.479,4.822,5.457,12.163,5.404c3.754-0.026,5.194-0.74,5.198-0.742l2.851-2.697c-0.062-0.014-2.271,0.552-4.485,0.75
			C76.109,44.713,69.608,45.434,65.26,40.723z M77.543,34.329c-4.561-0.823-8.501-5.337-11.443-10.209
			C63.151,19.23,58.812,12.305,51.537,9.6l-2.226,2.273c2.467,0.832,4.578,1.941,6.078,3.386c2.971,2.859,4.971,5.252,8.677,10.526
			c3.699,5.271,6.9,10.527,13.234,11.065c5.349,0.456,10.889-0.472,14.041-1.339l2.355-2.225l0.197-0.189
			c-0.758,0.191-1.826,0.427-3.281,0.688C86.462,34.533,82.105,35.152,77.543,34.329z"/>
		<path style="fill:#EC1C24;" d="M51.954,0.446C45.202,0.084,40.131,0.158,35.28,0.613l-8.198,7.544l-2.205,2.071
			c5.926-0.465,12.086-0.374,16.768,0.047c2.56,0.229,5.292,0.817,7.725,1.618l2.216-2.313l8.244-8.285
			C57.539,0.82,55.024,0.613,51.954,0.446z"/>
		<path style="fill:#FFFFFF;" d="M50.503,5.266C48.2,7.596,42.491,9.217,38,8.983c-4.195-0.223-5.887-2.022-3.967-4.092
			c1.948-2.1,7.077-3.842,11.67-3.883C50.608,0.992,52.882,2.906,50.503,5.266L50.503,5.266z"/>
		<polygon style="fill:#FFD300;" points="36.971,1.007 36.995,1.52 38.079,1.596 36.858,2.029 36.519,2.594 35.749,2.332 
			34.522,2.6 35.224,2.039 34.792,1.627 35.993,1.516 36.971,1.007 		"/>
		<polygon style="fill:#FFD300;" points="31.094,7.206 31.111,7.849 32.364,7.997 30.933,8.439 30.532,9.133 29.65,8.763 
			28.197,9.019 29.052,8.377 28.542,7.859 29.938,7.789 31.094,7.206 		"/>
		<polygon style="fill:#FFD300;" points="55.9,1.464 55.91,2.072 57.327,2.248 55.711,2.596 55.243,3.233 54.266,2.866 
			52.646,3.038 53.576,2.474 53.041,1.977 54.582,1.983 55.9,1.464 		"/>
		<polygon style="fill:#FFD300;" points="49.513,8.173 49.487,8.837 50.944,9.165 49.249,9.428 48.715,10.09 47.717,9.594 
			46.022,9.692 47.036,9.118 46.501,8.513 48.107,8.648 49.513,8.173 		"/>
		<path style="fill:#034EA1;" d="M38.204,7.859l0.425,0.321c0,0-0.005,0.262,0.084,0.307c0.107,0.043,0.105,0.135,0.431-0.024
			c0.326-0.142,0.503-0.302,0.612-0.368c0.117-0.082,0.027-0.03,0.364-0.138c0.326-0.107,0.508-0.136,0.748-0.309
			c0.248-0.188,0.149,0,0.367-0.269c0.26-0.287,0.37-0.452,0.655-0.51c0.294-0.089,0.864-0.192,1.179-0.22
			c0.3-0.016,1.022,0.149,1.242,0.004c0.189-0.165,0.516-0.545,0.794-0.624c0.283-0.11,0.798-0.362,1.056-0.581
			c0.247-0.192,0.595-0.456,0.751-0.539c0.167-0.073,0.689-0.32,0.689-0.32s1.056-0.525,1.37-0.552
			c0.332-0.005,0.474-0.235,0.523-0.337c0.02-0.095-0.222-0.204-0.368-0.236c-0.149-0.014-0.332-0.047-0.407-0.152
			c-0.106-0.119-0.623-0.255-0.623-0.255s-0.365,0.235-0.694-0.012c-0.349-0.279-0.288-0.455-0.501-0.472
			c-0.194-0.024-0.137-0.004-0.41-0.007c-0.286-0.003-0.422,0.002-0.618,0.061c-0.186,0.051,0.023,0.39-0.512,0.178
			c-0.554-0.229-0.534-0.49-0.637-0.606c-0.127-0.1-0.136-0.015-0.39-0.072C44.11,2.072,44.03,2.039,43.902,2.12
			c-0.117,0.061-0.602,0.394-0.682,0.365c-0.104-0.054-0.589-0.326-0.392-0.435c0.237-0.123,0.427-0.435,0.319-0.406
			c-0.078,0.009-0.373,0.122-0.541,0.135c-0.157,0.029-0.451,0.026-0.509,0.046c-0.06,0.03-0.521,0.116-0.561,0.199
			c-0.061,0.061,0.264,0.066-0.043,0.26c-0.297,0.195-0.563,0.368-0.825,0.184c-0.252-0.173-0.277-0.235-0.455-0.206
			c-0.168,0.048-0.494,0.22-0.662,0.321c-0.178,0.112-0.297,0.172-0.297,0.172s0.002-0.051-0.13,0.196
			c-0.121,0.242-0.221,0.376-0.418,0.456c-0.186,0.059-0.265,0.108-0.677,0.217c-0.432,0.077-0.575,0.232-0.79,0.329
			c-0.208,0.094-0.315,0.196-0.258,0.352c0.093,0.159,0.062,0.276,0.211,0.206c0.147-0.084,0.16-0.197,0.265-0.151
			c0.126,0.043,0.152,0.357,0.31,0.3c0.167-0.102,0.106-0.034,0.476-0.257c0.371-0.222,0.217-0.182,0.498-0.106
			c0.283,0.047,0.244,0.164,0.346,0.321c0.108,0.15,0.249,0.234,0.407,0.272c0.128,0.01-0.001,0.154,0.289,0.412
			c0.296,0.267,0.296,0.267,0.296,0.267s-0.109,0.2-0.219,0.311c-0.09,0.136-0.433,0.317-0.33,0.457
			c0.076,0.136,0.28,0.234,0.386,0.383c0.114,0.148,0.11,0.452,0.11,0.452s-0.574,0.338-0.683,0.345
			C39.254,7.544,38.312,7.808,38.204,7.859L38.204,7.859z"/>
		<path style="fill:#034EA1;" d="M45.7,1.704c-0.159,0.108-0.808,0.293-0.721,0.442c0.091,0.171,0.275,0.439,0.444,0.401
			c0.166-0.052,0.31,0.076,0.403-0.192C45.919,2.074,45.7,1.704,45.7,1.704L45.7,1.704z"/>
	</g>
	<g>
		<g>
			<g>
				<path style="fill:#231F20;" d="M123.84,45.235h1.032h2.519l-2.873-7.81l-3.153,7.81H123.84z M123.84,29.012h1.032h3.895
					l10.34,26.579h-7.867l-1.835-4.959h-4.534h-1.032h-4.771l-2.039,4.959h-7.93l11.613-26.579H123.84z"/>
				<path style="fill:#231F20;" d="M150.742,28.624c0.172,0,0.34,0.004,0.517,0.007L150.742,28.624z M150.225,28.624
					c0.172,0.004,0.344,0,0.517,0H150.225z M150.742,49.663c3.905,0,6.788-2.981,6.788-7.302c0-4.379-2.883-7.359-6.768-7.359
					c-3.946,0.02-6.789,2.98-6.789,7.359C143.973,46.685,146.815,49.663,150.742,49.663 M151.258,56.077
					c-0.166,0.004-0.331,0.004-0.497,0.004h0.497V56.077z M161.031,32.361c2.742,2.626,4.163,6.011,4.163,9.999
					c0,3.911-1.418,7.316-4.163,9.885c-2.571,2.451-5.841,3.73-9.772,3.832l-0.497,0.004c-4.157,0-7.552-1.283-10.229-3.836
					c-2.743-2.569-4.163-6.014-4.163-9.885c0-3.988,1.423-7.373,4.163-9.999c2.567-2.411,5.796-3.633,9.692-3.731l0.517-0.007h0.517
					C155.177,28.728,158.462,29.951,161.031,32.361"/>
				<path style="fill:#231F20;" d="M181.705,29.009l0.227,0.002h0.114L181.705,29.009z M181.705,39.602
					c1.756-0.054,3.287-0.206,3.287-2.38c0-1.955-1.367-2.322-2.923-2.404h-2.622v4.784H181.705z M192.613,37.162
					c0,6.323-4.688,8.082-9.878,8.42l-0.514,0.033h-0.104l-0.412,0.014c-0.101,0.004-0.202,0.004-0.3,0.004h-1.958v9.958h-7.414
					V29.012l9.672-0.002l0.341,0.002h0.689C187.902,29.242,192.613,30.794,192.613,37.162"/>
				<path style="fill:#231F20;" d="M201.433,45.235h1.029h2.52l-2.873-7.81l-3.154,7.81H201.433z M201.433,29.012h1.029h3.9
					l10.335,26.579h-7.868l-1.836-4.959h-4.532h-1.029h-4.772l-2.04,4.959h-7.928l11.612-26.579H201.433z"/>
				<path style="fill:#231F20;" d="M272.793,28.624c0.164,0.004,0.328,0,0.492,0H272.793z M273.285,49.663
					c3.93,0,6.793-2.981,6.793-7.302c0-4.358-2.865-7.341-6.777-7.359c-3.938,0-6.781,2.98-6.781,7.359
					C266.52,46.685,269.363,49.663,273.285,49.663 M272.793,56.081h0.492c-0.164,0-0.328,0-0.492-0.004V56.081z M273.824,56.077
					c-0.17,0.004-0.346,0.004-0.516,0.004h0.516V56.077z M283.541,32.361c2.713,2.626,4.176,6.006,4.176,9.999
					c0,3.917-1.461,7.316-4.178,9.885c-2.547,2.447-5.809,3.728-9.715,3.832l-0.516,0.004h-0.516
					c-3.93-0.105-7.145-1.389-9.734-3.836c-2.738-2.569-4.182-6.013-4.182-9.885c0-3.991,1.447-7.373,4.182-10.003
					c2.59-2.408,5.809-3.632,9.734-3.728l0.492-0.005C277.434,28.624,280.879,29.844,283.541,32.361"/>
				<path style="fill:#231F20;" d="M99.615,50.071c2.479,0,3.3-0.736,3.3-1.749c0-1.502-1.965-1.931-3.062-2.309
					c-6.439-2.262-9.938-4.494-9.938-9.529c0-4.663,4.154-7.861,10.167-7.861c3.289,0,6.256,0.866,9.208,2.271v6.388
					c-2.651-1.343-5.805-2.853-8.882-2.853c-2.48,0-3.198,0.729-3.198,1.546c0,0.666,0.709,1.482,3.096,2.336
					c2.17,0.857,4.415,1.593,6.431,2.793c2.434,1.512,3.616,3.857,3.616,6.828c0,5.054-4.017,8.147-10.616,8.147
					c-3.473,0-6.415-0.946-9.372-2.735v-6.877C93.157,48.157,96.195,50.071,99.615,50.071"/>
				<path style="fill:#231F20;" d="M227.184,56.081c-7.827,0-12.577-4.406-12.577-11.921V29.012h7.438v14.883
					c0,3.868,1.843,5.813,5.179,5.813c3.315,0,5.118-1.938,5.118-5.813V29.012h7.459V44.16
					C239.8,51.675,235.008,56.081,227.184,56.081"/>
				<polygon style="fill:#231F20;" points="248.98,29.012 248.98,49.663 259.978,49.663 259.978,55.591 241.542,55.591 
					241.542,29.012 				"/>
				<path style="fill:#231F20;" d="M124.516,27.383l-1.028-0.437c-0.476-0.231-0.989-0.362-1.319-0.404
					c-0.972-0.12-1.557,0.337-2.004,1.243l-2.152-0.266c0.976-3.052,2.511-4.422,4.712-4.152c0.429,0.052,1.027,0.247,1.69,0.52
					l0.504,0.206l1.304,0.543c0.37,0.121,0.691,0.23,1.094,0.28c0.852,0.103,1.636-0.401,1.999-1.411l2.156,0.264
					c-1.019,2.998-2.415,4.604-4.83,4.308c-0.449-0.056-0.955-0.236-1.441-0.395L124.516,27.383z"/>
				<path style="fill:#231F20;" d="M97.021,22.356c-1.917,0-3.519-0.599-4.662-1.686c-1.196-1.144-1.865-2.728-1.865-4.522
					c0-3.675,2.639-6.224,6.826-6.224c1.529,0,2.975,0.368,4.47,1.089v2.638c-1.604-0.808-3.045-1.214-4.311-1.214
					c-2.429,0-3.888,1.408-3.888,3.711c0,2.253,1.406,3.693,3.642,3.693c0.598,0,1.177-0.122,1.759-0.37v-1.512h-1.654v-2.25h4.716
					v5.028C100.575,21.845,98.956,22.356,97.021,22.356"/>
				<path style="fill:#231F20;" d="M105.428,11.646c1.214-1.142,2.746-1.705,4.644-1.705c1.901,0,3.451,0.563,4.662,1.705
					c1.233,1.181,1.884,2.711,1.884,4.502c0,1.794-0.651,3.323-1.884,4.488c-1.211,1.141-2.762,1.722-4.662,1.722
					c-1.898,0-3.43-0.581-4.644-1.722c-1.23-1.164-1.882-2.711-1.882-4.488C103.546,14.357,104.197,12.827,105.428,11.646
					 M110.071,19.823c1.989,0,3.432-1.509,3.432-3.674c0-2.163-1.443-3.692-3.432-3.692c-1.988,0-3.43,1.53-3.43,3.692
					C106.642,18.313,108.083,19.823,110.071,19.823"/>
				<polygon style="fill:#231F20;" points="116.533,10.136 119.753,10.136 122.728,17.115 125.895,10.136 129.147,10.136 
					123.288,22.25 121.987,22.25 				"/>
				<polygon style="fill:#231F20;" points="129.973,10.136 138.011,10.136 138.011,12.35 132.98,12.35 132.98,14.794 
					137.782,14.794 137.782,17.027 132.98,17.027 132.98,19.894 138.153,19.894 138.153,22.145 129.973,22.145 				"/>
				<path style="fill:#231F20;" d="M140.139,10.136h4.433c3.219,0,4.785,1.072,4.785,3.48c0,1.319-0.651,2.252-2.094,2.901
					c0.599,0.23,1.075,0.74,1.426,1.513l1.916,4.115h-3.395l-1.53-3.463c-0.475-1.076-1.002-1.441-2.18-1.441
					c-0.125,0-0.232,0.017-0.355,0.017v4.888h-3.006V10.136z M146.243,13.652c0-0.878-0.563-1.39-1.653-1.39h-1.444v2.797h1.444
					C145.715,15.059,146.243,14.602,146.243,13.652"/>
				<polygon style="fill:#231F20;" points="154.529,22.145 151.555,22.145 151.555,10.136 154.193,10.136 160.631,17.291 
					160.631,10.136 163.603,10.136 163.603,22.145 161.247,22.145 154.529,14.602 				"/>
				<path style="fill:#231F20;" d="M167.243,11.646c1.214-1.142,2.745-1.705,4.643-1.705c1.903,0,3.449,0.563,4.665,1.705
					c1.232,1.181,1.881,2.711,1.881,4.502c0,1.794-0.649,3.323-1.881,4.488c-1.215,1.141-2.761,1.722-4.665,1.722
					c-1.898,0-3.429-0.581-4.643-1.722c-1.23-1.164-1.88-2.711-1.88-4.488C165.363,14.357,166.012,12.827,167.243,11.646
					 M171.886,19.823c1.991,0,3.433-1.509,3.433-3.674c0-2.163-1.442-3.692-3.433-3.692c-1.987,0-3.429,1.53-3.429,3.692
					C168.456,18.313,169.899,19.823,171.886,19.823"/>
				<path style="fill:#231F20;" d="M184.99,10.136h4.504c1.917,0,3.465,0.123,4.961,1.247c1.529,1.162,2.339,2.795,2.339,4.75
					c0,2.144-0.985,3.937-2.818,5.098c-1.353,0.861-2.757,0.915-4.482,0.915h-4.504V10.136z M187.998,19.72h2.234
					c2.058,0,3.467-1.495,3.467-3.587c0-2.092-1.41-3.571-3.467-3.571h-2.234V19.72z"/>
				<path style="fill:#231F20;" d="M199.852,11.646c1.213-1.142,2.743-1.705,4.643-1.705c1.901,0,3.449,0.563,4.663,1.705
					c1.232,1.181,1.883,2.711,1.883,4.502c0,1.794-0.651,3.323-1.883,4.488c-1.214,1.141-2.762,1.722-4.663,1.722
					c-1.9,0-3.43-0.581-4.643-1.722c-1.232-1.164-1.881-2.711-1.881-4.488C197.971,14.357,198.621,12.827,199.852,11.646
					 M204.496,19.823c1.989,0,3.431-1.509,3.431-3.674c0-2.163-1.442-3.692-3.431-3.692c-1.988,0-3.43,1.53-3.43,3.692
					C201.065,18.313,202.508,19.823,204.496,19.823"/>
				<polygon style="fill:#231F20;" points="217.598,10.136 225.639,10.136 225.639,12.35 220.605,12.35 220.605,14.794 
					225.409,14.794 225.409,17.027 220.605,17.027 220.605,19.894 225.781,19.894 225.781,22.145 217.598,22.145 				"/>
				<path style="fill:#231F20;" d="M227.499,18.524c1.512,0.931,2.745,1.512,4.102,1.512c1.175,0,1.793-0.369,1.793-1.074
					c0-0.721-0.548-0.948-1.6-1.318c-3.027-1.055-4.504-2.058-4.504-4.239c0-2.003,1.776-3.463,4.537-3.463
					c1.321,0,2.711,0.317,4.08,0.986v2.46c-1.528-0.773-2.813-1.195-3.921-1.195c-1.161,0-1.759,0.351-1.759,0.965
					c0,0.494,0.528,0.934,1.618,1.338c1.076,0.404,2.095,0.739,2.992,1.283c1.055,0.651,1.583,1.671,1.583,3.008
					c0,2.18-1.724,3.57-4.75,3.57c-1.497,0-2.883-0.386-4.17-1.159V18.524z"/>
				<polygon style="fill:#231F20;" points="241.114,12.369 237.137,12.369 237.137,10.136 248.256,10.136 248.256,12.369 
					244.282,12.369 244.282,22.145 241.114,22.145 				"/>
				<path style="fill:#231F20;" d="M252.289,10.136h3.465l4.682,12.009h-3.184l-0.863-2.337h-5.172l-0.969,2.337h-3.201
					L252.289,10.136z M255.631,17.75l-1.688-4.575l-1.863,4.575H255.631z"/>
				<path style="fill:#231F20;" d="M261.26,10.136h4.504c1.916,0,3.463,0.123,4.959,1.247c1.529,1.162,2.342,2.795,2.342,4.75
					c0,2.144-0.984,3.937-2.816,5.098c-1.353,0.861-2.76,0.915-4.484,0.915h-4.504V10.136z M264.266,19.72h2.236
					c2.059,0,3.465-1.495,3.465-3.587c0-2.092-1.406-3.571-3.465-3.571h-2.236V19.72z"/>
				<path style="fill:#231F20;" d="M276.119,11.646c1.215-1.142,2.748-1.705,4.645-1.705c1.9,0,3.451,0.563,4.664,1.705
					c1.232,1.181,1.881,2.711,1.881,4.502c0,1.794-0.648,3.323-1.881,4.488c-1.213,1.141-2.764,1.722-4.664,1.722
					c-1.896,0-3.43-0.581-4.645-1.722c-1.23-1.164-1.881-2.711-1.881-4.488C274.238,14.357,274.889,12.827,276.119,11.646
					 M280.764,19.823c1.99,0,3.432-1.509,3.432-3.674c0-2.163-1.441-3.692-3.432-3.692c-1.988,0-3.43,1.53-3.43,3.692
					C277.334,18.313,278.775,19.823,280.764,19.823"/>
			</g>
		</g>
	</g>
</g>
</svg>
