<svg width="368" height="298" viewBox="0 0 368 298" fill="none" xmlns="http://www.w3.org/2000/svg">
<g clip-path="url(#clip0)">
<path d="M172.954 2.99911L111.031 68.2656L29.8227 106.986C29.4307 107.174 29.0809 107.439 28.7946 107.766C28.5082 108.092 28.2913 108.474 28.157 108.887C28.0227 109.301 27.9738 109.737 28.0132 110.17C28.0527 110.602 28.1797 111.022 28.3865 111.405L71.3258 190.461L83.0559 279.659C83.1127 280.09 83.2566 280.505 83.479 280.879C83.7014 281.253 83.9975 281.577 84.3494 281.833C84.7013 282.088 85.1015 282.27 85.5257 282.366C85.9499 282.461 86.3892 282.47 86.8167 282.39L175.275 265.98L263.729 282.387C264.157 282.466 264.596 282.457 265.019 282.361C265.443 282.265 265.843 282.084 266.195 281.828C266.546 281.573 266.842 281.248 267.064 280.875C267.286 280.501 267.43 280.087 267.487 279.656L279.22 190.457L322.156 111.401C322.364 111.019 322.491 110.599 322.531 110.166C322.57 109.733 322.522 109.297 322.387 108.883C322.253 108.47 322.036 108.088 321.749 107.762C321.463 107.435 321.112 107.17 320.72 106.983L239.515 68.2656L177.596 2.99911C177.297 2.68353 176.937 2.43217 176.538 2.26039C176.139 2.0886 175.709 2 175.275 2C174.84 2 174.41 2.0886 174.011 2.26039C173.612 2.43217 173.252 2.68353 172.954 2.99911" fill="#FFB26E"/>
<path d="M172.954 2.99911L111.031 68.2656L29.8227 106.986C29.4307 107.174 29.0809 107.439 28.7946 107.766C28.5082 108.092 28.2913 108.474 28.157 108.887C28.0227 109.301 27.9738 109.737 28.0132 110.17C28.0527 110.602 28.1797 111.022 28.3865 111.405L71.3258 190.461L83.0559 279.659C83.1127 280.09 83.2566 280.505 83.479 280.879C83.7014 281.253 83.9975 281.577 84.3494 281.833C84.7013 282.088 85.1015 282.27 85.5257 282.366C85.9499 282.461 86.3892 282.47 86.8167 282.39L175.275 265.98L263.729 282.387C264.157 282.466 264.596 282.457 265.019 282.361C265.443 282.265 265.843 282.084 266.195 281.828C266.546 281.573 266.842 281.248 267.064 280.875C267.286 280.501 267.43 280.087 267.487 279.656L279.22 190.457L322.156 111.401C322.364 111.019 322.491 110.599 322.531 110.166C322.57 109.733 322.522 109.297 322.387 108.883C322.253 108.47 322.036 108.088 321.749 107.762C321.463 107.435 321.112 107.17 320.72 106.983L239.515 68.2656L177.596 2.99911C177.297 2.68353 176.937 2.43217 176.538 2.26039C176.139 2.0886 175.709 2 175.275 2C174.84 2 174.41 2.0886 174.011 2.26039C173.612 2.43217 173.252 2.68353 172.954 2.99911" stroke="white" stroke-width="2" stroke-miterlimit="10" stroke-linecap="round" stroke-linejoin="round"/>
<mask id="mask0" mask-type="alpha" maskUnits="userSpaceOnUse" x="28" y="2" width="295" height="281">
<path d="M172.954 2.99911L111.031 68.2656L29.8227 106.986C29.4307 107.174 29.0809 107.439 28.7946 107.766C28.5082 108.092 28.2913 108.474 28.157 108.887C28.0227 109.301 27.9738 109.737 28.0132 110.17C28.0527 110.602 28.1797 111.022 28.3865 111.405L71.3258 190.461L83.0559 279.659C83.1127 280.09 83.2566 280.505 83.479 280.879C83.7014 281.253 83.9975 281.577 84.3494 281.833C84.7013 282.088 85.1015 282.27 85.5257 282.366C85.9499 282.461 86.3892 282.47 86.8167 282.39L175.275 265.98L263.729 282.387C264.157 282.466 264.596 282.457 265.019 282.361C265.443 282.265 265.843 282.084 266.195 281.828C266.546 281.573 266.842 281.248 267.064 280.875C267.286 280.501 267.43 280.087 267.487 279.656L279.22 190.457L322.156 111.401C322.364 111.019 322.491 110.599 322.531 110.166C322.57 109.733 322.522 109.297 322.387 108.883C322.253 108.47 322.036 108.088 321.749 107.762C321.463 107.435 321.112 107.17 320.72 106.983L239.515 68.2656L177.596 2.99911C177.297 2.68353 176.937 2.43217 176.538 2.26039C176.139 2.0886 175.709 2 175.275 2C174.84 2 174.41 2.0886 174.011 2.26039C173.612 2.43217 173.252 2.68353 172.954 2.99911Z" fill="#C7FA73"/>
</mask>
<g mask="url(#mask0)">
<path d="M113.718 263.318C113.718 263.318 119.972 278.96 122.307 280.703C124.642 282.445 129.501 275.654 129.501 275.654C129.501 275.654 126.402 243.584 125.368 241.462C124.335 239.341 119.779 236.61 119.779 236.61C116.718 241.076 114.651 246.147 113.718 251.481C112.202 260.284 113.718 263.318 113.718 263.318Z" fill="#FFB26E" stroke="black" stroke-width="1.2" stroke-linecap="round" stroke-linejoin="round"/>
<path d="M152.428 130.828L171.951 126.431L191.582 129.692C191.582 129.692 228.233 178.334 228.915 178.334C229.596 178.334 237.38 254.343 237.38 254.343L200.199 270.605L167.216 268.849L126.446 277.434C126.446 277.434 123.936 250.093 123.264 235.318C122.593 220.544 121.652 191.838 123.264 184.327C124.876 176.816 140.99 151.317 140.99 151.317L152.428 130.828Z" fill="white"/>
</g>
<path d="M239.835 220.75L235.737 251.691H221.393" fill="white"/>
<path d="M239.835 220.75L235.737 251.691H221.393" stroke="black" stroke-width="1.2" stroke-linecap="round" stroke-linejoin="round"/>
<path d="M214.643 251.632C214.643 251.632 213.796 277.975 218.5 277.5C223.204 277.025 237.858 257.855 242.112 255.427C246.365 252.999 256.528 247.231 250.002 245.715C243.475 244.2 239.763 242.561 235.851 242.864C231.938 243.167 214.643 251.632 214.643 251.632Z" fill="#FFB26E"/>
<path d="M250.756 221.735C247.233 235.091 232.327 243.628 232.327 243.628C237.537 246.513 241.652 251.032 244.037 256.488C248.249 266.386 247.223 272.051 247.223 272.051C247.223 272.051 265.989 262.877 279.434 246.886C296.282 226.853 297.418 197.91 263.271 161.104C229.951 125.194 183.823 125.215 183.823 125.215" fill="white"/>
<path d="M241.76 236.22C241.76 236.22 256.838 231.812 269.429 229.625C289.904 226.078 292.194 219.827 292.194 219.827C292.194 219.827 292.321 217.444 290.286 208.889C290.286 208.889 271.403 215.815 264.876 218.091C258.35 220.368 250.46 223.054 249.878 224.421C248.867 226.727 247.645 228.933 246.227 231.013C244.902 232.883 243.406 234.626 241.76 236.22V236.22Z" fill="#FFB26E"/>
<path d="M247.136 267.244C247.136 267.244 266.853 255.272 275.353 242.072C283.853 228.871 281.008 213.666 281.008 213.666C281.008 213.666 291.371 210.143 290.913 216.879C290.455 223.615 290.148 238.81 273.872 252.886C257.596 266.961 248.387 271.459 248.387 271.459L247.233 272.051L247.136 267.244Z" fill="#FFB26E"/>
<path d="M241.76 156.172C259.717 165.581 261.274 178.451 261.274 178.451L269.03 167.21C269.03 167.21 263.423 160.322 256.866 154.754C250.308 149.185 241.76 156.172 241.76 156.172Z" fill="#FFB26E"/>
<path d="M250.756 221.735C247.233 235.091 232.327 243.628 232.327 243.628C237.537 246.513 241.652 251.032 244.037 256.488C248.249 266.386 247.223 272.051 247.223 272.051C247.223 272.051 265.989 262.877 279.434 246.886C296.282 226.853 297.418 197.91 263.271 161.104C229.951 125.194 183.823 125.215 183.823 125.215" stroke="black" stroke-width="1.2" stroke-linecap="round" stroke-linejoin="round"/>
<path d="M160.156 126.431C160.156 126.431 109.805 131.287 75.1692 170.138C49.1398 199.339 58.7794 230.844 80.3352 246.022C101.891 261.2 113.721 263.321 113.721 263.321C113.721 263.321 113.418 258.465 115.694 249.511C116.795 245.132 118.164 240.824 119.793 236.613C119.793 236.613 99.2115 216.683 101.278 208.373C103.689 198.626 122.524 192.589 122.524 192.589" fill="white"/>
<path d="M123.271 180.745C123.271 180.745 97.586 193.963 96.7216 206.558C95.8124 219.827 114.148 231.01 114.148 231.01C114.148 231.01 99.1496 214.134 101.274 208.376C103.399 202.618 122.52 192.592 122.52 192.592L123.271 180.745Z" fill="#FFB26E"/>
<path d="M160.156 126.431C160.156 126.431 109.805 131.287 75.1692 170.138C49.1398 199.339 58.7794 230.844 80.3352 246.022C101.891 261.2 113.721 263.321 113.721 263.321C113.721 263.321 113.418 258.465 115.694 249.511C116.795 245.132 118.164 240.824 119.793 236.613C119.793 236.613 99.2115 216.683 101.278 208.373C103.689 198.626 122.524 192.589 122.524 192.589" stroke="black" stroke-width="1.2" stroke-linecap="round" stroke-linejoin="round"/>
<path d="M153.141 84.2731C153.141 84.2731 140.987 75.3981 141.669 61.2847C142.351 47.1714 154.546 38.8577 154.546 38.8577C154.546 38.8577 152.762 44.9466 155.947 46.09C159.133 47.2334 159.484 40.7794 159.484 40.7794C159.484 40.7794 166.183 42.5496 172.792 44.7847C188.958 50.2468 199.021 62.3248 199.162 73.9241C199.4 93.2102 185.603 113.306 185.603 113.306L153.141 84.2731Z" fill="black" stroke="black" stroke-width="1.2" stroke-linecap="round" stroke-linejoin="round"/>
<path d="M157.222 116.488C157.222 116.488 156.974 129.461 158.337 131.965C159.701 134.469 166.548 139.48 178.144 136.074C189.739 132.668 186.974 125.359 186.698 123.403C185.882 117.617 185.665 98.011 185.665 98.011L157.222 116.488Z" fill="#FFB26E" stroke="black" stroke-width="1.2" stroke-linecap="round" stroke-linejoin="round"/>
<path d="M176.322 113.071C169.947 118.764 157.456 121.798 152.19 118.537C146.604 115.065 140.58 103.284 147.182 78.6972C153.784 54.1108 170.402 58.891 176.776 65.0385C183.151 71.186 185.428 79.1587 185.428 84.3901C185.413 87.1455 185.109 89.8918 184.518 92.5833C184.518 92.5833 190.328 86.6735 193.511 90.6478C195.787 93.4959 193.641 97.8215 191.554 99.5263C189.051 101.575 185.428 102.144 185.428 102.144" fill="#FFB26E"/>
<mask id="mask1" mask-type="alpha" maskUnits="userSpaceOnUse" x="144" y="60" width="51" height="60">
<path d="M176.322 113.071C169.947 118.764 157.456 121.798 152.19 118.537C146.604 115.065 140.58 103.284 147.182 78.6972C153.784 54.1108 170.402 58.891 176.776 65.0385C183.151 71.186 185.428 79.1587 185.428 84.3901C185.413 87.1455 185.109 89.8918 184.518 92.5833C184.518 92.5833 190.328 86.6735 193.511 90.6478C195.787 93.4959 193.641 97.8215 191.554 99.5263C189.051 101.575 185.428 102.144 185.428 102.144" fill="#C7FA73"/>
</mask>
<g mask="url(#mask1)">
<path d="M169.2 58.8911C169.2 58.8911 156.457 61.1882 151.357 78.6216C147.183 92.8761 144.648 103.418 147.282 112.224C149.917 121.03 139.444 110.568 143.311 92.3561C147.179 74.1444 149.958 65.9478 154.146 62.5348C158.334 59.1219 169.2 58.8911 169.2 58.8911Z" fill="white"/>
</g>
<path d="M176.322 113.071C169.947 118.764 157.456 121.798 152.19 118.537C146.604 115.065 140.58 103.284 147.182 78.6972C153.784 54.1108 170.402 58.891 176.776 65.0385C183.151 71.186 185.428 79.1587 185.428 84.3901C185.413 87.1455 185.109 89.8918 184.518 92.5833C184.518 92.5833 190.328 86.6735 193.511 90.6478C195.787 93.4959 193.641 97.8215 191.554 99.5263C189.051 101.575 185.428 102.144 185.428 102.144" stroke="black" stroke-width="1.2" stroke-linecap="round" stroke-linejoin="round"/>
<path d="M163.104 82.3478C163.104 82.3478 160.173 78.2358 157.897 80.5122C155.62 82.7887 159.946 87.3416 159.946 87.3416" fill="#FFB26E"/>
<path d="M163.104 82.3478C163.104 82.3478 160.173 78.2358 157.897 80.5122C155.62 82.7887 159.946 87.3416 159.946 87.3416" stroke="black" stroke-width="1.2" stroke-linecap="round" stroke-linejoin="round"/>
<path d="M165.859 96.6816C171.552 100.78 174.51 94.1778 174.056 92.356Z" fill="#FFB26E"/>
<path d="M165.859 96.6816C171.552 100.78 174.51 94.1778 174.056 92.356" stroke="black" stroke-width="1.2" stroke-linecap="round" stroke-linejoin="round"/>
<path d="M191.065 256.226C184.504 253.864 177.79 253.717 170.925 255.786C164.06 257.854 158.698 261.725 154.838 267.399C154.652 267.674 154.477 267.946 154.305 268.222L150.978 264.898V277.72C150.954 278.195 150.957 278.671 150.978 279.146V279.304C151.058 280.825 151.367 282.325 151.894 283.754C153.797 288.98 158.03 292.768 164.592 295.119C171.154 297.47 177.868 297.617 184.735 295.56C191.6 293.494 196.966 289.623 200.833 283.947C204.699 278.271 205.678 272.822 203.77 267.598C201.86 262.38 197.625 258.589 191.065 256.226Z" fill="black"/>
<mask id="mask2" mask-type="alpha" maskUnits="userSpaceOnUse" x="150" y="254" width="55" height="43">
<path d="M191.065 256.226C184.504 253.864 177.79 253.717 170.925 255.786C164.06 257.854 158.698 261.725 154.838 267.399C154.652 267.674 154.477 267.946 154.305 268.222L150.978 264.898V277.72C150.954 278.195 150.957 278.671 150.978 279.146V279.304C151.058 280.825 151.367 282.325 151.894 283.754C153.797 288.98 158.03 292.768 164.592 295.119C171.154 297.47 177.868 297.617 184.735 295.56C191.6 293.494 196.966 289.623 200.833 283.947C204.699 278.271 205.678 272.822 203.77 267.598C201.86 262.38 197.625 258.589 191.065 256.226Z" fill="black"/>
</mask>
<g mask="url(#mask2)">
<path d="M156.633 276.243V292.474C156.633 292.474 159.705 295.205 167.443 297.027C175.182 298.849 175.275 298.167 175.275 298.167V282.442C175.275 282.442 168.566 282.638 164.599 280.72C161.866 279.37 159.207 277.875 156.633 276.243V276.243Z" fill="#FFB26E"/>
<path d="M178.826 280.989V299.286H181.329V280.403L178.826 280.989Z" fill="#FFB26E"/>
<path d="M149.004 261.272L156.633 276.243V292.474C156.633 292.474 152.893 291.097 150.947 285.418C149.001 279.738 149.004 275.671 149.004 275.671V261.272Z" fill="white"/>
</g>
<path d="M191.065 256.226C184.504 253.864 177.79 253.717 170.925 255.786C164.06 257.854 158.698 261.725 154.838 267.399C154.652 267.674 154.477 267.946 154.305 268.222L150.978 264.898V277.72C150.954 278.195 150.957 278.671 150.978 279.146V279.304C151.058 280.825 151.367 282.325 151.894 283.754C153.797 288.98 158.03 292.768 164.592 295.119C171.154 297.47 177.868 297.617 184.735 295.56C191.6 293.494 196.966 289.623 200.833 283.947C204.699 278.271 205.678 272.822 203.77 267.598C201.86 262.38 197.625 258.589 191.065 256.226Z" stroke="black" stroke-width="1.2" stroke-linecap="round" stroke-linejoin="round"/>
<path d="M317.6 169.105C317.6 169.008 317.6 168.912 317.6 168.815L317.827 152.529L316.16 156.947C315.816 155.511 315.389 154.075 314.91 152.636C310.981 140.847 301.272 131.132 282.988 124.554C264.62 117.943 247.441 117.086 231.449 121.981C215.458 126.876 202.16 136.969 191.554 152.26L233.13 167.221C237.212 161.524 241.919 157.535 247.25 155.253C252.581 152.971 257.707 152.714 262.627 154.482C273.304 158.318 277.395 167.359 267.893 178.204C264.105 182.533 259.008 186.156 253.163 188.969C247.319 191.783 239.732 194.48 230.433 197.052C221.135 199.625 212.917 203.668 205.799 209.175C198.68 214.682 191.306 223.03 183.682 234.226L218.862 246.886C222.994 241.119 227.133 236.615 231.277 233.376C235.421 230.136 240.728 227.435 247.198 225.272L269.725 218.04C279.417 214.747 287.393 210.979 293.654 206.733C299.932 202.529 305.45 197.289 309.971 191.235C314.79 184.864 317.461 177.126 317.6 169.139V169.105Z" fill="black"/>
<path d="M252.354 139.628V154.03L254.679 153.366V138.967L252.354 139.628Z" fill="#FFB26E"/>
<path d="M258.012 139.208V153.607L262.09 154.716V140.313L258.012 139.208Z" fill="#FFB26E"/>
<path d="M267.153 142.917V157.32L273.827 166.115L275.122 151.306C275.122 151.306 273.872 150.545 271.137 146.485C268.403 142.424 267.153 142.917 267.153 142.917Z" fill="#FFB26E"/>
<path d="M317.6 169.105C317.6 169.008 317.6 168.912 317.6 168.815L317.827 152.529L316.16 156.947C315.816 155.511 315.389 154.075 314.91 152.636C310.981 140.847 301.272 131.132 282.988 124.554C264.62 117.943 247.441 117.086 231.449 121.981C215.458 126.876 202.16 136.969 191.554 152.26L233.13 167.221C237.212 161.524 241.919 157.535 247.25 155.253C252.581 152.971 257.707 152.714 262.627 154.482C273.304 158.318 277.395 167.359 267.893 178.204C264.105 182.533 259.008 186.156 253.163 188.969C247.319 191.783 239.732 194.48 230.433 197.052C221.135 199.625 212.917 203.668 205.799 209.175C198.68 214.682 191.306 223.03 183.682 234.226L218.862 246.886C222.994 241.119 227.133 236.615 231.277 233.376C235.421 230.136 240.728 227.435 247.198 225.272L269.725 218.04C279.417 214.747 287.393 210.979 293.654 206.733C299.932 202.529 305.45 197.289 309.971 191.235C314.79 184.864 317.461 177.126 317.6 169.139V169.105Z" stroke="black" stroke-width="1.2" stroke-linecap="round" stroke-linejoin="round"/>
<path d="M123.736 177.115C123.736 177.115 119.128 201.223 126.433 273.891Z" fill="white"/>
<path d="M123.736 177.115C123.736 177.115 119.128 201.223 126.433 273.891" stroke="black" stroke-width="1.2" stroke-linecap="round" stroke-linejoin="round"/>
<path d="M183.682 219.827C191.316 208.628 198.691 200.272 205.809 194.762C212.927 189.252 221.138 185.211 230.444 182.639C239.749 180.066 247.326 177.371 253.174 174.556C259.028 171.743 264.108 168.12 267.904 163.791C277.405 152.946 273.297 143.905 262.638 140.069C257.717 138.298 252.592 138.556 247.26 140.84C241.929 143.125 237.222 147.114 233.14 152.808L191.554 137.847C202.162 122.563 215.462 112.473 231.456 107.578C247.45 102.683 264.63 103.541 282.995 110.151C301.279 116.729 310.988 126.444 314.917 138.233C319.436 151.788 319.463 161.859 309.541 176.433C305.305 182.7 299.913 188.101 293.654 192.348C287.393 196.595 279.417 200.363 269.725 203.651L247.199 210.883C240.724 213.046 235.417 215.744 231.277 218.977C227.137 222.209 222.999 226.712 218.862 232.484L183.682 219.827ZM154.838 252.996C158.703 247.316 164.069 243.444 170.939 241.38C177.808 239.315 184.522 239.464 191.079 241.824C197.639 244.184 201.873 247.972 203.78 253.189C205.688 258.405 204.709 263.855 200.843 269.537C196.979 275.218 191.613 279.089 184.746 281.15C177.878 283.212 171.159 283.069 164.588 280.72C158.029 278.357 153.796 274.569 151.89 269.355C149.985 264.141 150.967 258.688 154.838 252.996Z" fill="#FFB26E"/>
<mask id="mask3" mask-type="alpha" maskUnits="userSpaceOnUse" x="150" y="104" width="168" height="179">
<path d="M183.682 219.827C191.316 208.628 198.691 200.272 205.809 194.762C212.927 189.252 221.138 185.211 230.444 182.639C239.749 180.066 247.326 177.371 253.174 174.556C259.028 171.743 264.108 168.12 267.904 163.791C277.405 152.946 273.297 143.905 262.638 140.069C257.717 138.298 252.592 138.556 247.26 140.84C241.929 143.125 237.222 147.114 233.14 152.808L191.554 137.847C202.162 122.563 215.462 112.473 231.456 107.578C247.45 102.683 264.63 103.541 282.995 110.151C301.279 116.729 310.988 126.444 314.917 138.233C319.436 151.788 319.463 161.859 309.541 176.433C305.305 182.7 299.913 188.101 293.654 192.348C287.393 196.595 279.417 200.363 269.725 203.651L247.199 210.883C240.724 213.046 235.417 215.744 231.277 218.977C227.137 222.209 222.999 226.712 218.862 232.484L183.682 219.827ZM154.838 252.996C158.703 247.316 164.069 243.444 170.939 241.38C177.808 239.315 184.522 239.464 191.079 241.824C197.639 244.184 201.873 247.972 203.78 253.189C205.688 258.405 204.709 263.855 200.843 269.537C196.979 275.218 191.613 279.089 184.746 281.15C177.878 283.212 171.159 283.069 164.588 280.72C158.029 278.357 153.796 274.569 151.89 269.355C149.985 264.141 150.967 258.688 154.838 252.996Z" fill="#C7FA73"/>
</mask>
<g mask="url(#mask3)">
<path d="M165.952 243.319C157.749 249.346 150.602 261.82 156.633 276.226C162.663 290.632 149.232 275.84 149.004 267.871C148.777 259.902 150.826 254.67 155.152 249.886C159.477 245.103 165.952 243.319 165.952 243.319Z" fill="white"/>
<path d="M189.109 221.78C189.109 221.78 191.42 212.327 198.783 204.357C206.147 196.388 213.592 189.572 213.592 189.572C206.146 193.676 199.591 199.219 194.306 205.88C185.844 216.721 183.685 219.828 183.685 219.828L189.109 221.78Z" fill="white"/>
<path d="M198.783 140.448C198.783 140.448 200.161 133.636 204.056 127.905C207.951 122.174 216.83 113.94 216.83 113.94C216.83 113.94 206.095 120.036 199.765 127.636C193.435 135.237 191.561 137.848 191.561 137.848L198.783 140.448Z" fill="white"/>
</g>
<path d="M183.682 219.827C191.316 208.628 198.691 200.272 205.809 194.762C212.927 189.252 221.138 185.211 230.444 182.639C239.749 180.066 247.326 177.371 253.174 174.556C259.028 171.743 264.108 168.12 267.904 163.791C277.405 152.946 273.297 143.905 262.638 140.069C257.717 138.298 252.592 138.556 247.26 140.84C241.929 143.125 237.222 147.114 233.14 152.808L191.554 137.847C202.162 122.563 215.462 112.473 231.456 107.578C247.45 102.683 264.63 103.541 282.995 110.151C301.279 116.729 310.988 126.444 314.917 138.233C319.436 151.788 319.463 161.859 309.541 176.433C305.305 182.7 299.913 188.101 293.654 192.348C287.393 196.595 279.417 200.363 269.725 203.651L247.199 210.883C240.724 213.046 235.417 215.744 231.277 218.977C227.137 222.209 222.999 226.712 218.862 232.484L183.682 219.827ZM154.838 252.996C158.703 247.316 164.069 243.444 170.939 241.38C177.808 239.315 184.522 239.464 191.079 241.824C197.639 244.184 201.873 247.972 203.78 253.189C205.688 258.405 204.709 263.855 200.843 269.537C196.979 275.218 191.613 279.089 184.746 281.15C177.878 283.212 171.159 283.069 164.588 280.72C158.029 278.357 153.796 274.569 151.89 269.355C149.985 264.141 150.967 258.688 154.838 252.996Z" stroke="black" stroke-width="1.2" stroke-linecap="round" stroke-linejoin="round"/>
<path d="M191.554 152.253V137.847L233.13 152.808V167.21L191.554 152.253Z" fill="white" stroke="black" stroke-width="1.2" stroke-linecap="round" stroke-linejoin="round"/>
<path d="M183.682 234.23V219.827L218.862 232.484V246.886L183.682 234.23Z" fill="white"/>
<path d="M191.554 237.061L189.109 221.78L218.862 232.484V246.886L191.554 237.061Z" fill="#FFB26E"/>
<path d="M183.682 234.23V219.827L218.862 232.484V246.886L183.682 234.23Z" stroke="black" stroke-width="1.2" stroke-linecap="round" stroke-linejoin="round"/>
<path d="M232.327 243.629C232.327 243.629 222.987 246.831 213.888 247.155C203.15 247.537 199.637 247.42 198.862 249.318C197.723 252.108 209.466 253.723 214.181 256.506L214.722 259.753" fill="#FFB26E"/>
<path d="M210.241 247.279C208.571 247.334 201.742 248.75 202.045 250.117C202.276 251.015 202.7 251.852 203.288 252.569C203.288 252.569 197.747 251.336 198.635 249.924C199.524 248.512 199.465 247.276 204.71 247.513C206.557 247.593 208.408 247.515 210.241 247.279V247.279Z" fill="white"/>
<path d="M232.327 243.629C232.327 243.629 222.987 246.831 213.888 247.155C203.15 247.537 199.637 247.42 198.862 249.318C197.723 252.108 209.466 253.723 214.181 256.506L214.722 259.753" stroke="black" stroke-width="1.2" stroke-linecap="round" stroke-linejoin="round"/>
<path d="M247.233 272.051C247.233 272.051 234.26 280.72 210.414 280.393C199.393 280.234 197.175 277.854 197.605 276.239C198.019 274.7 201.094 275.079 203.185 275.089C207.538 275.11 215.927 274.7 218.683 274.018" fill="#FFB26E"/>
<path d="M247.233 272.051C247.233 272.051 234.26 280.72 210.414 280.393C199.393 280.234 197.175 277.854 197.605 276.239C198.019 274.7 201.094 275.079 203.185 275.089C207.538 275.11 215.927 274.7 218.683 274.018" stroke="black" stroke-width="1.2" stroke-linecap="round" stroke-linejoin="round"/>
<path d="M217.45 269.01C217.45 269.01 212.139 269.413 199.162 269.541C195.587 269.575 192.712 269.503 192.712 271.628C192.712 273.904 197.096 275.182 203.185 275.072C208.366 274.991 213.539 274.633 218.683 274.001" fill="#FFB26E"/>
<path d="M192.739 270.433C193.153 271.779 198.997 274.682 201.425 274.968C203.853 275.254 204.011 274.968 204.011 274.968C204.011 274.968 194.62 275.006 193.015 273.508C192.571 273.136 192.293 272.604 192.242 272.027C192.19 271.451 192.369 270.877 192.739 270.433Z" fill="white"/>
<path d="M217.45 269.01C217.45 269.01 212.139 269.413 199.162 269.541C195.587 269.575 192.712 269.503 192.712 271.628C192.712 273.904 197.096 275.182 203.185 275.072C208.366 274.991 213.539 274.633 218.683 274.001" stroke="black" stroke-width="1.2" stroke-linecap="round" stroke-linejoin="round"/>
<path d="M215.249 261.954C215.249 261.954 202.272 263.531 196.128 263.435C188.844 263.318 189.753 267.34 193.029 268.632C195.46 269.593 198.418 269.351 205.702 269.444C209.623 269.529 213.546 269.385 217.45 269.011" fill="#FFB26E"/>
<path d="M192.722 263.803C190.976 268.329 200.006 269.407 200.006 269.407C200.006 269.407 193.951 270.095 191.782 267.922C189.612 265.749 190.776 264.802 191.379 264.44C191.809 264.193 192.258 263.98 192.722 263.803V263.803Z" fill="white"/>
<path d="M215.249 261.954C215.249 261.954 202.272 263.531 196.128 263.435C188.844 263.318 189.753 267.34 193.029 268.632C195.46 269.593 198.418 269.351 205.702 269.444C209.623 269.529 213.546 269.385 217.45 269.011" stroke="black" stroke-width="1.2" stroke-linecap="round" stroke-linejoin="round"/>
<path d="M216.83 254.821C216.83 254.821 209.666 255.992 202.389 256.702C196.166 257.301 192.722 257.477 190.656 259.753C189.316 261.241 190.273 263.407 194.864 263.407C200.636 263.407 217.818 261.954 217.818 261.954" fill="#FFB26E"/>
<path d="M197.326 257.191C193.173 258.028 192.216 259.54 193.225 261.272C194.234 263.004 201.273 263.407 201.273 263.407C201.273 263.407 192.415 264.227 191.344 262.811C190.273 261.396 189.181 260.814 190.452 259.763C191.723 258.713 192.639 258.21 194.62 257.639C196.6 257.067 197.326 257.191 197.326 257.191Z" fill="white"/>
<path d="M216.83 254.821C216.83 254.821 209.666 255.992 202.389 256.702C196.166 257.301 192.722 257.477 190.656 259.753C189.316 261.241 190.273 263.407 194.864 263.407C200.636 263.407 217.818 261.954 217.818 261.954" stroke="black" stroke-width="1.2" stroke-linecap="round" stroke-linejoin="round"/>
<path d="M223.673 255.693C223.673 255.693 225.739 269.623 225.116 275.668Z" fill="#FFB26E"/>
<path d="M223.673 255.693C223.673 255.693 225.739 269.623 225.116 275.668" stroke="black" stroke-width="1.2" stroke-linecap="round" stroke-linejoin="round"/>
<path d="M157.222 120.021C157.222 120.021 157.321 125.208 157.414 126.427C157.507 127.646 164.275 129.43 169.2 123.224C174.125 117.018 175.275 113.926 175.275 113.926C175.275 113.926 170.477 117.228 165.859 118.716C163.069 119.613 160.152 120.054 157.222 120.021V120.021Z" fill="black"/>
<path d="M187.78 137.217C191.661 134.166 192.946 128.779 191.568 125.769" stroke="black" stroke-width="1.2" stroke-linecap="round" stroke-linejoin="round"/>
<path d="M168.049 142.221C174.765 142.817 178.791 141.133 181.481 140.237" stroke="black" stroke-width="1.2" stroke-linecap="round" stroke-linejoin="round"/>
<path d="M155.145 127.154C155.145 127.154 150.144 132.296 155.947 137.217" stroke="black" stroke-width="1.2" stroke-linecap="round" stroke-linejoin="round"/>
<path d="M101.533 212.185C101.533 212.185 99.8316 204.898 99.1497 201.633" stroke="black" stroke-width="1.2" stroke-linecap="round" stroke-linejoin="round"/>
<path d="M321.333 152.074C330.742 160.88 340.912 184.554 340.912 184.554L331.197 183.328L327.556 193.357L317.841 190.622L315.254 200.641C315.254 200.641 311.773 179.543 305.701 160.574C303.769 154.537 321.333 152.074 321.333 152.074Z" fill="#FFB26E" stroke="black" stroke-width="1.2" stroke-linecap="round" stroke-linejoin="round"/>
<path d="M305.55 162.389L300.993 202.463L292.8 196.24L283.98 201.681L282.327 191.384L271.248 191.99L287.879 156.565L305.55 162.389Z" fill="#FFB26E" stroke="black" stroke-width="1.2" stroke-linecap="round" stroke-linejoin="round"/>
<path d="M324.365 155.237C330.497 144.618 326.173 130.643 314.708 124.024C303.244 117.405 288.98 120.648 282.848 131.267C276.717 141.887 281.041 155.862 292.505 162.481C303.97 169.1 318.234 165.857 324.365 155.237Z" fill="white" stroke="black" stroke-width="1.2" stroke-linecap="round" stroke-linejoin="round"/>
<path d="M318.009 148.548C321.932 141.722 319.138 132.755 311.767 128.519C304.397 124.283 295.242 126.383 291.319 133.208C287.396 140.034 290.191 149.002 297.561 153.238C304.931 157.474 314.086 155.374 318.009 148.548Z" fill="#FFB26E" stroke="black" stroke-width="1.2" stroke-linecap="round" stroke-linejoin="round"/>
<path d="M306.462 126.999C314.166 130.116 316.983 135.857 316.756 141.877C316.529 147.897 312.238 153.931 307.85 155.188C303.462 156.445 313.298 155.556 315.954 151.151C318.609 146.746 319.993 144.969 319.053 139.097C318.715 136.903 317.843 134.826 316.514 133.047C315.185 131.269 313.44 129.843 311.432 128.896C309.822 128.147 308.162 127.513 306.462 126.999V126.999Z" fill="black"/>
<path d="M296.292 134.166C290.675 134.166 291.247 146.281 294.394 145.779C296.292 145.472 295.407 142.662 296.292 140.237C297.735 136.291 298.107 134.166 296.292 134.166Z" fill="white"/>
<path d="M299.591 139.252C297.305 141.539 300.504 143.347 301.072 141.529C301.641 139.711 300.862 137.999 299.591 139.252Z" fill="white"/>
<path d="M292.504 162.482C294.129 164.066 296.12 165.203 300.019 166.343C303.917 167.483 304.971 167.51 304.971 167.51V165.912C304.971 165.912 300.766 166.084 297.518 164.996C294.271 163.908 292.504 162.482 292.504 162.482Z" fill="black"/>
<path d="M307.788 167.51C307.788 167.51 313.136 167.706 316.856 165.444C320.575 163.181 322.659 161.311 324.977 161.728C329.302 162.496 331.52 165.971 331.52 165.971C331.52 165.971 326.936 158.694 325.931 157.361C324.925 156.028 324.105 155.69 324.105 155.69C322.503 158.793 319.975 161.32 316.873 162.923C311.638 165.654 307.32 165.812 307.32 165.812L307.788 167.51Z" fill="black"/>
<path d="M143.469 271.88L98 280.316" stroke="white" stroke-width="2" stroke-miterlimit="10" stroke-linecap="round"/>
</g>
<defs>
<clipPath id="clip0">
<rect width="368" height="297.99" fill="white"/>
</clipPath>
</defs>
</svg>
